<svg xmlns="http://www.w3.org/2000/svg" width="464px" height="334px" xmlns:xlink="http://www.w3.org/1999/xlink" version="1.1"><defs/><g transform="translate(0.5,0.5)">
<svg version="1.1" xmlns="http://www.w3.org/2000/svg" xmlns:xlink="http://www.w3.org/1999/xlink" x="178" y="42"
	 width="128" height="128"  viewBox="0 0 57.8 175.6" enable-background="new 0 0 57.8 175.6" xml:space="preserve">
<polygon fill="#6C1C10" points="6.4,38 6.8,41 9.5,40.5 8.9,38.5 "/>
<g>
	<g>
		<path fill="#010101" d="M39.5,172.8c0.1-3.9,1.2-8.6,2.9-11.3l0,0c-0.3-0.2-0.7-0.3-1.2-0.3l0,0c-1.1,0-2.5,0.4-3.5,0.5l0,0
			c-0.4,0-0.9,0-1.3,0l0,0c-1.7,0-3.3-0.2-5-0.3l0,0c-0.4,0-0.8,0-1.1,0l0,0c-3.9-0.1-7.9,0.8-11.9,0.7l0,0c-0.1,0-0.1,0-0.2,0l0,0
			c0.4,1.9,1.6,3.8,2.1,5.9l0,0c0.2,0.8,0.3,2.2,0.5,3.6l0,0c0.1,1.3,0.4,2.6,0.4,2.7l0,0c0,0,0,0,0,0l0,0l-0.1,0.1l-0.3,0.4
			c-0.3-0.3-0.3-0.6-0.4-1.1l0,0c-0.1-0.5-0.2-1.2-0.3-1.9l0,0c-0.2-1.4-0.3-3-0.5-3.7l0,0c-0.5-2.1-1.8-4.2-2.2-6.4l0,0l-0.1-0.4
			l0.4,0c0.2,0,0.4,0,0.5,0l0,0c3.9,0,7.9-0.8,11.9-0.7l0,0c0.4,0,0.8,0,1.2,0l0,0c1.7,0.1,3.3,0.3,5,0.3l0,0c0.4,0,0.8,0,1.3,0l0,0
			c0.9,0,2.3-0.5,3.5-0.5l0,0c0.7,0,1.3,0.2,1.8,0.6l0,0l0.2,0.2l-0.2,0.2c-1.6,2.5-2.9,7.4-2.9,11.2l0,0c0,1,0.1,1.9,0.2,2.7l0,0
			l-0.6,0.1C39.5,174.7,39.4,173.8,39.5,172.8L39.5,172.8z"/>
		<path fill="#010101" d="M20.1,174l0.1-0.7c1.9,0.3,3.8,0.4,5.6,0.4l0,0c1.9,0,3.9-0.1,5.9-0.3l0,0c2.7-0.3,6.5,0.1,8.8-0.9l0,0
			l0.2,0.6c-2.6,1.1-6.4,0.7-9,1l0,0c-2,0.2-4,0.3-5.9,0.3l0,0C23.9,174.5,22,174.3,20.1,174L20.1,174z"/>
		<path fill="#010101" d="M28.5,169.6c-0.3,0-0.6-0.1-1.1-0.3l0,0l-0.3,0l-0.1,0.2c0,0,0,0,0,0l0,0c-0.1,0-0.3-0.2-0.3-0.5l0,0
			c0-0.1,0-0.2,0.1-0.3l0,0l0.1-0.2c-0.1-0.6-0.2-1.4-0.2-2.3l0,0c0-1.2,0.2-2.5,0.9-3.2l0,0l0.1-0.1l0.2,0.1
			c1.4,0.7,1.6,2.3,1.6,3.8l0,0c0,0.1,0,0.3,0,0.4l0,0c0,0.7,0,1.2-0.1,1.6l0,0C29.3,169.3,29,169.6,28.5,169.6L28.5,169.6
			C28.6,169.6,28.6,169.6,28.5,169.6L28.5,169.6z M28.6,168.9c0.2,0,0.1,0,0.2-0.2l0,0c0.1-0.2,0.1-0.7,0.1-1.5l0,0
			c0-0.1,0-0.3,0-0.4l0,0c0-1.4-0.2-2.6-1-3.1l0,0c-0.4,0.5-0.6,1.5-0.6,2.6l0,0c0,0.9,0.1,1.8,0.3,2.3l0,0
			C28,168.8,28.4,168.9,28.6,168.9L28.6,168.9z"/>
		<path fill="#010101" d="M35.3,169.6c0-0.1,0-0.1,0-0.2l0,0c0,0,0,0,0,0l0,0l-0.2-0.6c0.1,0,0.1-0.1,0.2-0.1l0,0c0-0.2,0-0.5,0-0.7
			l0,0c0-0.9,0.1-1.9,0.4-2.7l0,0c0.3-0.8,0.9-1.4,1.9-1.4l0,0c0,0,0,0,0.1,0l0,0l0.3,0l0,0.3c0,0.8,0,1.5,0,2.3l0,0
			c0,0.8,0,1.6-0.1,2.3l0,0l0,0.3l-0.3,0c-0.2,0-0.3,0-0.5,0l0,0c-0.4,0-0.7,0-1.1,0.1l0,0c0,0.1,0,0.2,0,0.4l0,0l0,0v0h0
			L35.3,169.6C35.3,169.7,35.3,169.7,35.3,169.6L35.3,169.6z M36.2,165.6c-0.2,0.6-0.3,1.6-0.3,2.5l0,0c0,0.2,0,0.4,0,0.6l0,0
			c0.4-0.1,0.7-0.1,1.1-0.1l0,0c0.1,0,0.1,0,0.2,0l0,0c0-0.7,0-1.3,0.1-2l0,0c0-0.7,0-1.3,0-2l0,0C36.7,164.7,36.4,165,36.2,165.6
			L36.2,165.6z M35.3,169.5C35.3,169.5,35.3,169.5,35.3,169.5L35.3,169.5L35.3,169.5L35.3,169.5L35.3,169.5z"/>
		<path fill="#010101" d="M24.2,170.1L24.2,170.1C24.1,170.1,24.1,170.1,24.2,170.1L24.2,170.1C24.1,170.1,24.1,170.1,24.2,170.1
			L24.2,170.1C24.1,170.1,24.1,170,24.2,170.1L24.2,170.1L24.2,170.1c-0.5-0.3-0.9-0.3-1.3-0.4l0,0l-0.1,0.1l0,0c0,0-0.1,0-0.2-0.1
			l0,0c0,0-0.2,0-0.2-0.3l0,0c0-0.1,0-0.1,0.1-0.2l0,0c-0.2-0.3-0.4-0.8-0.7-1.3l0,0c-0.3-0.8-0.6-1.9-0.5-2.7l0,0
			c0-0.7,0.2-1.5,0.9-1.7l0,0c0.1,0,0.2-0.1,0.4-0.1l0,0c1.1,0.1,1.5,1.6,1.7,3l0,0c0.2,1.3,0.3,2.7,0.4,3.3l0,0c0,0.1,0,0,0.1,0.1
			l0,0c0,0,0,0,0,0l0,0c0,0.1,0,0.2,0,0.3l0,0c0,0.1-0.2,0.2-0.3,0.2l0,0C24.1,170.1,24.2,170.1,24.2,170.1L24.2,170.1z M22.7,169.7
			L22.7,169.7L22.7,169.7L22.7,169.7L22.7,169.7L22.7,169.7z M23.9,169.3c-0.1-0.7-0.2-1.8-0.3-2.8l0,0c-0.2-1.4-0.7-2.5-1.1-2.4
			l0,0c0,0-0.1,0-0.2,0l0,0c-0.3,0.1-0.5,0.4-0.5,1.1l0,0c0,0.7,0.2,1.7,0.5,2.5l0,0c0.3,0.8,0.7,1.4,0.8,1.4l0,0h0l0,0.1
			C23.3,169.1,23.6,169.2,23.9,169.3L23.9,169.3z"/>
		<path fill="#010101" d="M30.8,169.2L30.8,169.2c0,0,0-0.1,0-0.1l0,0l0,0c0,0,0,0,0,0l0,0c-0.2-0.8-0.4-2-0.4-3.1l0,0
			c0-1.4,0.4-2.8,1.7-2.9l0,0c0.1,0,0.1,0,0.2,0l0,0c1.5,0.2,1.9,1.9,1.8,3.3l0,0c0,0.9-0.2,1.7-0.4,2.3l0,0l-0.1,0.2l-0.2,0
			c-0.9,0.1-1.6,0.4-2.4,0.8l0,0L30.8,169.2L30.8,169.2z M31.2,164.3c-0.2,0.4-0.3,1-0.3,1.6l0,0c0,1,0.2,2.2,0.4,2.9l0,0
			c0.6-0.3,1.2-0.4,1.9-0.5l0,0c0.1-0.5,0.3-1.2,0.3-1.9l0,0c0-1.4-0.4-2.5-1.3-2.6l0,0c0,0-0.1,0-0.1,0l0,0
			C31.6,163.7,31.4,163.9,31.2,164.3L31.2,164.3z"/>
		<path fill="#010101" d="M21.2,147.7c0-0.7,0-1.4,0-2.1l0,0c0-2.8,0.3-5.7,0.3-8.5l0,0c0-1.2,0-2.4-0.1-3.6l0,0c-0.1,0-0.2,0-0.2,0
			l0,0c-0.2,0-0.4,0-0.6,0l0,0c-0.1,0-0.2,0-0.2,0l0,0l-0.3,0.1l-0.1-0.3c-0.1-0.2-0.1-0.5-0.1-0.7l0,0c0-1,0.5-1.9,1.3-2l0,0
			c0.1,0,0.3,0.1,0.4,0.1l0,0c-0.2-2.4-0.6-4.8-0.7-7.2l0,0c0-0.5,0-0.9,0-1.4l0,0c0-2.5,0.3-4.9,0.4-7.3l0,0c0-0.4,0-0.7,0-1.1l0,0
			c-0.1-3.6-0.6-8-0.6-12.1l0,0c0-1.6,0.1-3.1,0.4-4.5l0,0c-0.1,0-0.1,0-0.2,0l0,0c-1.1-0.1-1.6-1.4-1.6-2.6l0,0
			c0-0.5,0.1-1.1,0.4-1.5l0,0l0.2-0.3l0.2,0.3c0.1,0.1,0.3,0.3,0.6,0.4l0,0c-0.1-0.6-0.1-1.3-0.1-2l0,0c0-2.9,0.5-6.1,0.5-9.1l0,0
			c0-0.3,0-0.7,0-1l0,0c-0.1-4.1-1.2-9.4-1.1-13.4l0,0c0-0.3,0-0.6,0-0.9l0,0h0l0.6,0c0,0.3,0,0.6,0,0.8l0,0c0,3.8,1,9.1,1.1,13.3
			l0,0c0,0.3,0,0.7,0,1l0,0c0,3-0.5,6.2-0.5,9.1l0,0c0,0.9,0,1.8,0.1,2.7l0,0l-0.5,0.2c-0.1-0.2-0.5-0.4-0.9-0.7l0,0
			c-0.1,0.2-0.1,0.5-0.1,0.8l0,0c0,0.5,0.1,1,0.3,1.4l0,0c0.2,0.4,0.5,0.6,0.7,0.6l0,0c0.1,0,0.3,0,0.4-0.1l0,0l0.6-0.4l-0.1,0.7
			c-0.3,1.5-0.4,3.2-0.4,4.9l0,0c-0.1,4,0.5,8.4,0.6,12.1l0,0c0,0.4,0,0.7,0,1.1l0,0c0,2.5-0.3,4.9-0.4,7.3l0,0c0,0.5,0,0.9,0,1.4
			l0,0c0.1,2.7,0.7,5.7,0.8,8.6l0,0l-0.6,0.1c-0.1-0.8-0.4-0.9-0.5-0.9l0,0c-0.1,0-0.3,0.1-0.4,0.3l0,0c-0.1,0.2-0.3,0.6-0.3,1l0,0
			c0,0.1,0,0.2,0,0.2l0,0c0,0,0.1,0,0.1,0l0,0c0.2,0,0.4,0,0.6,0l0,0c0.1,0,0.3,0,0.4-0.1l0,0l0.4-0.2l0,0.5
			c0.1,1.3,0.1,2.7,0.1,4.1l0,0c0,2.8-0.3,5.8-0.3,8.5l0,0c0,0.7,0,1.4,0,2l0,0c0.1,3.3,0.1,9.9,1.1,11.9l0,0l-0.5,0.3
			C21.3,157.5,21.3,151.1,21.2,147.7L21.2,147.7z"/>
		<path fill="#010101" d="M38.5,155.9c0-2.5,0.3-5.3,0.3-7.3l0,0c0-0.5,0-1,0-1.4l0,0c-0.1-1.3-0.1-2.6-0.1-4l0,0c0-1,0-1.9,0-2.9
			l0,0c0-2.3,0-4.6-0.4-6.4l0,0l-0.1-0.5l0.5,0.1c0.2,0.1,0.4,0.1,0.6,0.1l0,0c0.7,0,0.9-0.4,0.9-1.1l0,0c0-0.4-0.1-0.9-0.2-1.2l0,0
			c-0.1-0.3-0.3-0.5-0.3-0.5l0,0c0,0,0,0-0.1,0.1l0,0c-0.1,0.1-0.2,0.4-0.2,0.7l0,0c0,0,0,0,0,0.1l0,0l-0.6-0.2c0,0,0,0,0,0l0,0l0,0
			c0,0,0,0,0,0l0,0c0,0,0,0,0,0l0,0c0-0.2,0.1-0.6,0.1-0.8l0,0c0-0.1,0-0.2,0-0.2l0,0l0.1,0l-0.1,0c0,0,0,0,0,0l0,0c0,0,0,0,0,0l0,0
			c0,0,0,0,0,0l0,0c0,0,0,0,0,0l0,0c0.3-2.7,0.5-5.5,0.5-8.2l0,0c0-3,0-6.1-0.1-9.2l0,0c-0.1-2.9-0.5-5.8-0.5-8.6l0,0c0,0,0,0,0-0.1
			l0,0c0-2.4,0.5-4.9,0.5-7.2l0,0c0-0.3,0-0.6,0-0.9l0,0l0-0.6l0.5,0.3c0.3,0.2,0.5,0.3,0.6,0.3l0,0c0.2,0,0.4-0.2,0.4-0.8l0,0
			c0-0.4-0.1-0.9-0.3-1.3l0,0c-0.2-0.4-0.4-0.6-0.5-0.5l0,0c-0.1,0-0.4,0.2-0.8,1.1l0,0l-0.6-0.2c0.3-2,0.5-4,0.5-6.2l0,0
			c0.1-6.2-0.8-12.7-0.7-18.6l0,0c0-0.9,0-1.8,0.1-2.7l0,0L39,67c-0.1,0.9-0.1,1.8-0.1,2.7l0,0c-0.1,5.8,0.8,12.4,0.7,18.6l0,0
			c0,1.6-0.1,3.3-0.3,4.8l0,0c0.2-0.1,0.4-0.2,0.6-0.2l0,0c1,0.1,1.3,1.5,1.4,2.5l0,0c0,0.6-0.3,1.4-1,1.4l0,0c-0.2,0-0.3,0-0.5-0.1
			l0,0c0,0.1,0,0.3,0,0.4l0,0c0,2.4-0.5,4.8-0.5,7.1l0,0v0v0.1c0,2.8,0.4,5.7,0.5,8.7l0,0c0.1,3.1,0.2,6.1,0.1,9.2l0,0
			c0,2.7-0.2,5.3-0.5,8l0,0c0.1,0,0.2-0.1,0.3-0.1l0,0c0.5,0,0.7,0.4,0.9,0.8l0,0c0.2,0.4,0.3,1,0.3,1.5l0,0c0,0.4-0.1,0.9-0.3,1.2
			l0,0c-0.2,0.4-0.7,0.6-1.2,0.6l0,0c-0.1,0-0.2,0-0.3,0l0,0c0.3,1.8,0.3,3.9,0.3,6.1l0,0c0,1,0,1.9,0,2.9l0,0c0,1.4,0,2.7,0.1,4
			l0,0c0,0.4,0,0.9,0,1.5l0,0c0,2.1-0.3,4.9-0.3,7.3l0,0c0,2.2,0.1,4.2,0.7,5.3l0,0l-0.5,0.3C38.6,160.2,38.4,158.1,38.5,155.9
			L38.5,155.9z M38.7,104.4C38.7,104.4,38.7,104.4,38.7,104.4L38.7,104.4L38.7,104.4L38.7,104.4z"/>
		<path fill="#010101" d="M20.4,96.2c6.5,0.1,12.8-0.4,19.2-0.5l0,0c-0.3-0.6-0.5-1.2-0.7-1.7l0,0c-1.2,1.1-3.2,1.2-5.1,1.2l0,0
			c-1,0-1.9-0.1-2.7-0.1l0,0c-0.4,0-0.8,0-1.1,0l0,0c-0.5,0.1-1.2,0.1-2,0.1l0,0c-1,0-2.2-0.1-3.3-0.1l0,0c-1.7,0-3.3,0.1-3.8,0.4
			l0,0l-0.3-0.6c0.8-0.5,2.3-0.5,4.1-0.5l0,0c1.1,0,2.3,0.1,3.3,0.1l0,0c0.8,0,1.4,0,1.9-0.1l0,0c0.3,0,0.7,0,1.2,0l0,0
			c0.8,0,1.8,0.1,2.7,0.1l0,0c2.1,0,4.2-0.2,4.9-1.4l0,0l0.3-0.5l0.2,0.6c0.3,0.9,0.5,1.9,1.1,2.6l0,0l0.5,0.5l-0.7,0
			c-6.5,0.1-13.1,0.6-19.8,0.5l0,0L20.4,96.2L20.4,96.2z"/>
		<path fill="#010101" d="M30.4,133.7c-1.2-0.2-2.5-0.4-3.8-0.4l0,0c-2.1,0-4.3,0.3-6,1l0,0l-0.2-0.6c1.8-0.8,4.1-1.1,6.2-1.1l0,0
			c1.4,0,2.7,0.2,3.9,0.4l0,0c1.9,0.3,4.3,1.1,6.3,1.1l0,0c1.1,0,2-0.2,2.7-0.6l0,0h0l0.3,0.6c-0.8,0.6-1.9,0.8-3,0.8l0,0
			C34.6,134.8,32.2,134,30.4,133.7L30.4,133.7z"/>
		<path fill="#010101" d="M40.2,130.3c-1.2,0.5-2.7,0.6-4.2,0.6c-1.7,0-3.5-0.2-5.1-0.2c0,0,0,0,0,0c-1.5,0-4.7,0.9-7.1,0.8
			c-1.3,0-2.4-0.3-2.9-1c0,0-0.1,0.1-0.1,0.1c-0.1,0-0.1,0.1-0.2,0.1c0,0,0,0,0,0c-0.1,0.1-0.1,0.1-0.2,0.1c0,0,0,0,0,0
			c0.7,1,2,1.3,3.4,1.3c2.6,0,5.8-0.8,7.1-0.8l0,0h0c1.6,0,3.3,0.2,5.1,0.2c1.6,0,3.1-0.1,4.4-0.7L40.2,130.3z"/>
		<path fill="#010101" d="M22.2,81l0.3-0.6c1.1,0.8,2.9,1.1,4.8,1.1l0,0c3.5,0,7.7-0.9,10.1-1.5l0,0l0.2,0.6
			c-2.4,0.7-6.6,1.6-10.2,1.5l0,0C25.3,82.2,23.4,81.9,22.2,81L22.2,81z"/>
		<path fill="#010101" d="M32.1,113.1c-0.5,0-1,0-1.4,0c-0.7,0-2.8,0.5-4.1,0.5c0,0,0,0-0.1,0c-0.4,0.2-0.8,0.3-1.2,0.3
			c0.1,0.1,0.2,0.1,0.3,0.2c0.3,0.1,0.6,0.2,1,0.2c1.4,0,3.6-0.5,4.2-0.5c0.4,0,0.9,0,1.4,0c1.6,0,3.3,0.2,4.7,0.6l0.1-0.6
			C35.5,113.3,33.8,113.1,32.1,113.1z"/>
		<path fill="#010101" d="M32.9,74.9L32.9,74.9c-0.4-0.5-0.5-1.3-0.5-2l0,0c0-1.7,0.7-3.6,1.7-4.5l0,0l0.3-0.2l0.2,0.3
			c0.5,0.9,1.2,2.9,1.2,4.3l0,0c0,0.1,0,0.2,0,0.4l0,0c-0.1,1.1-0.5,1.7-1,1.8l0,0c-0.5,0.1-1,0-1.7,0.3l0,0L32.9,74.9L32.9,74.9z
			 M33,72.9c0,0.5,0.1,1,0.2,1.4l0,0c0.6-0.2,1.1-0.1,1.3-0.2l0,0c0.2-0.1,0.4-0.1,0.6-1.2l0,0c0-0.1,0-0.2,0-0.3l0,0
			c0-1-0.5-2.6-1-3.5l0,0C33.5,70,33,71.6,33,72.9L33,72.9z"/>
		<path fill="#010101" d="M25.7,108.5c0,0,0.1,0,0.1,0c0.1,0,0.2,0,0.3,0.1v-0.1c0-2,0.1-4.1-0.8-5.9l-0.2-0.4l-0.3,0.3
			c-0.7,0.7-1.2,2.4-1.3,3.7c0,0.6,0.1,1.1,0.5,1.4c-0.1,0.1-0.1,0.1-0.2,0.2l0.5,0.3l0,0c0,0,0.1,0,0.2,0c0.1,0,0.3,0,0.4,0.1
			C25.3,108.1,25.7,108.2,25.7,108.5z M24.3,107.6l0.2-0.3v0c-0.2-0.1-0.3-0.4-0.3-1c0-0.9,0.4-2.2,0.8-2.9c0.5,1.3,0.5,2.8,0.5,4.5
			c-0.3-0.2-0.7-0.3-1-0.3C24.5,107.6,24.4,107.6,24.3,107.6z"/>
		<path fill="#010101" d="M26.7,152.7c-0.4-0.5-0.8-0.7-1.3-0.7l0,0c-0.3,0-0.5,0.1-0.8,0.2l0,0l-0.4,0.2l-0.1-0.5
			c0-0.2,0-0.4,0-0.7l0,0c0-1,0.2-2.1,0.2-2.8l0,0c0-0.2,0-0.3,0-0.4l0,0l-0.4-0.1c0.2-0.7,0.8-0.9,1.3-1l0,0c0.5-0.1,1-0.1,1.3-0.4
			l0,0l0.3-0.2l0.1,0.4c0.3,0.9,0.5,2.3,0.5,3.7l0,0c0,0.9-0.1,1.7-0.3,2.3l0,0l-0.2,0.5L26.7,152.7L26.7,152.7z M26.8,151.9
			c0.1-0.4,0.2-1,0.2-1.6l0,0c0-1.1-0.1-2.2-0.3-3.1l0,0c-0.4,0.2-0.9,0.2-1.2,0.3l0,0c-0.2,0-0.4,0.1-0.5,0.2l0,0
			c0.1,0.2,0.1,0.5,0.1,0.8l0,0c0,0.9-0.2,2-0.2,2.8l0,0c0,0.1,0,0.1,0,0.2l0,0c0.2-0.1,0.5-0.1,0.7-0.1l0,0c0,0,0,0,0,0l0,0
			C26,151.4,26.4,151.5,26.8,151.9L26.8,151.9z"/>
		<path fill="#010101" d="M12.8,66.4l-0.1-0.2l0.1-0.2c0.6-0.9,1.6-1.1,2.6-1.1l0,0c1.8,0,3.9,0.7,4.9,0.8l0,0c0.3,0,0.6,0,0.9,0
			l0,0c2.4,0,4.7-0.5,7.2-0.5l0,0c0,0,0,0,0,0l0,0c2.7,0,5.3,0.4,7.9,0.6l0,0c0.2,0,0.4,0,0.6,0l0,0c1.5,0,3.3-0.3,4.9-0.3l0,0
			c0.9,0,1.7,0.1,2.5,0.4l0,0l0.4,0.2l-0.3,0.4c-0.8,1-3.4,1.4-4.7,1.4l0,0c-0.4,0-0.6,0-0.8-0.2l0,0l0.4-0.5l0,0.1l0-0.1
			c0,0,0,0,0,0l0,0c0,0,0,0,0.1,0l0,0c0.1,0,0.2,0,0.4,0l0,0c1,0,3-0.4,3.8-0.9l0,0c-0.5-0.1-1.1-0.2-1.7-0.2l0,0
			c-1.6,0-3.3,0.3-4.9,0.3l0,0c-0.2,0-0.4,0-0.6,0l0,0c-2.6-0.2-5.2-0.6-7.9-0.6l0,0c0,0,0,0,0,0l0,0c-2.4,0-4.7,0.5-7.2,0.5l0,0
			c-0.3,0-0.6,0-0.9,0l0,0c-1.2-0.1-3.2-0.8-4.9-0.8l0,0c-0.9,0-1.6,0.2-2,0.6l0,0c0.6,0.6,2,1,3.3,1l0,0c1,0,2.1-0.2,2.6-0.4l0,0
			l0,0l0.2,0.6c-0.7,0.3-1.7,0.5-2.8,0.4l0,0C15.2,67.8,13.6,67.4,12.8,66.4L12.8,66.4z M28.5,65.2C28.5,65.2,28.5,65.2,28.5,65.2
			L28.5,65.2C28.5,65.2,28.5,65.2,28.5,65.2L28.5,65.2z"/>
		<path fill="#010101" d="M57.5,36.5c0,0-0.2,0-0.3,0c-0.1,0-0.1,0-0.2,0c0,0,0,0,0,0c-0.7-0.6-2-0.6-3.2-0.6c-0.4,0-0.9,0-1.3,0
			c-0.4,0-0.7,0-0.9-0.1c-1.4-0.2-2.9-0.3-4.4-0.3c-0.6,0-1.2,0-1.7,0c-5.4,0-10.9,0.6-16.3,0.9c-4.6,0.2-9.1,0.3-13.6,0.6
			c-1.8,0.1-3.8,0.3-5.7,0.2c-1.8,0-3.5-0.2-5-0.8l-0.3-0.1l-0.1,0.4c-0.2,0.9-0.3,1.7-0.3,2.6c0,1.4,0.2,2.8,0.8,4.2
			c0.5,1.3,1.7,3.9,3.2,4c0.1,0,0.3,0,0.4-0.1c0.1,2.9,0.9,5.7,1.6,8.4c0.7,2.8,1,6.8,2.3,9.5L13,65c0-0.2,0-0.5,0-0.7
			c0-0.1,0-0.2,0-0.2l-0.4,0c-0.9-2.5-1.3-5.9-1.9-8.5c-0.7-2.9-1.6-6-1.6-8.9l0-0.4c0,0-0.1,0.1-0.1,0.1c-0.1,0.2-0.3,0.2-0.4,0.1
			c-0.2,0.2-0.3,0.3-0.4,0.3c-0.7,0.1-2.3-2.4-2.7-3.6c-0.5-1.3-0.7-2.6-0.7-4c0-0.7,0.1-1.4,0.2-2.1c1.5,0.5,3.2,0.7,4.8,0.7
			c2,0,3.9-0.2,5.8-0.2c4.5-0.2,9.1-0.3,13.6-0.6c5.4-0.2,10.9-0.9,16.2-0.9c0.6,0,1.1,0,1.7,0c1.5,0,3,0.1,4.3,0.3
			c0.3,0,0.6,0.1,1,0.1c0.4,0,0.8,0,1.3,0c1.2,0,2.4,0.1,2.9,0.5c0.2,0.1,0.2,0.1,0.3,0.1c0.1,0,0.1,0,0.2,0
			c-0.2,1.6-0.3,3.8-0.7,5.6c-0.4,1.7-0.9,2.9-1.9,3.2c-0.1,0.1-0.2,0.2-0.3,0.2c-0.2,0-0.4,0-0.6-0.1c-0.4,0-0.8-0.2-1.2-0.4
			c0,0,0,0-0.1-0.1c-0.1,0,0.1,0-0.2-0.1c-0.1,0-0.2,0-0.2,0.1c-0.1,0.1-0.1,0.1-0.1,0.2v0c0,0.2,0,0.2,0.1,0.2c0,0,0,0,0,0.1
			c0,0.3,0.1,0.6,0,0.9c0,2.6-1.4,6.8-2,9c-0.8,3-2.5,6.3-2.5,9.6c0,0.1,0,0.2,0,0.3c-1.1,0-2.5,0.3-3.1,0.3c-0.1,0-0.1,0-0.1,0
			l0,0.7c0.1,0,0.1,0,0.2,0c0.8,0,2.2-0.3,3.2-0.3c0.1,0,0.2,0,0.2,0l0.3,0l0-0.4c0-0.2,0-0.4,0-0.6c0-3.1,1.7-6.4,2.5-9.4
			c0.6-2.2,2-6.3,2.1-9.2c0-0.2,0-0.4,0-0.5c0.5,0.2,0.9,0.3,1.3,0.3c1.9,0,2.7-1.8,3.1-3.9c0.4-2.1,0.5-4.5,0.8-6l0.1-0.4
			L57.5,36.5z"/>
		<path fill="#010101" d="M51.6,45c-0.1,0-0.2,0-0.4,0c-2.3,0-4.8,0.9-6.7,1.1c-4.1,0.4-8.2,0.2-12.3,0.3c-2.8,0.1-5.6,0.3-8.3,0.2
			c-1.7,0-3.4-0.1-5.1-0.3c-0.3,0-0.7-0.1-1.2-0.1c-1.9,0-4.8,0.3-6.7,0.2c-0.7,0-1.3-0.1-1.7-0.2c0,0-0.1,0.1-0.1,0.1
			c-0.1,0.2-0.3,0.2-0.4,0.1l-0.1,0.2h0c0.5,0.3,1.3,0.4,2.3,0.4c2,0,4.8-0.3,6.7-0.2c0.4,0,0.8,0,1.1,0.1c1.7,0.2,3.4,0.3,5.1,0.3
			c2.8,0,5.6-0.1,8.4-0.2c4.1-0.2,8.2,0.1,12.4-0.3c2-0.2,4.6-1.1,6.7-1.1c0.6,0,1.3,0.1,1.8,0.3l0,0C52.5,45.7,52,45.4,51.6,45z"/>
		<path fill="#010101" d="M19.9,58.6c-0.1-2.7-0.5-5.9-1.2-8.4l-0.1-0.3l-0.3,0C17.9,50,17.1,50,16.3,50c-0.4,0-0.8,0-1.2,0
			c-1.6,0-3.1,0-4.1,0.3c0-0.1,0-0.1,0-0.2l0,0c-0.1,0.1-0.2,0.3-0.3,0.4c-0.1,0.1-0.2,0.2-0.3,0.2l0,0c0.3,2.9,1.2,5.9,1.6,8.6
			l0.1,0.3l0.3-0.1c0.8-0.2,1.6-0.2,2.4-0.2c0.5,0,1.1,0,1.6,0c1.1,0,2.2,0,3.3-0.5l0.2-0.1L19.9,58.6z M16.4,58.7
			c-0.5,0-1.1,0-1.6,0c-0.7,0-1.5,0-2.2,0.2c-0.5-2.5-1.2-5.3-1.5-7.9c0.7-0.3,2.4-0.4,4-0.3c0.4,0,0.8,0,1.2,0c0.7,0,1.4,0,1.9,0
			c0.6,2.4,1,5.3,1.1,7.7C18.4,58.7,17.4,58.7,16.4,58.7z"/>
		<path fill="#010101" d="M28.5,54.3c0-0.3,0-0.7,0-1.1c0-0.3,0-0.7,0-1c0-0.7,0-1.4-0.2-2.1c-0.2,0-0.5,0-0.7,0
			c-0.1,0-0.2-0.1-0.3-0.2C27,50,26.6,50,26.1,50c-1,0-2.1-0.3-3-0.3c-0.6,0-1.1,0.1-1.5,0.4c0,0,0,0,0,0c-0.1,0.1-0.2,0.2-0.4,0.4
			c-0.1,0.1-0.2,0.2-0.3,0.1c0.1,2.7,0.7,5.4,0.6,8.1c0,0.1,0,0.3,0,0.5l0,0.1c0.2,0.1,0.4,0.1,0.6,0.1c1.1-0.8,3.1-1,4.9-0.9
			c0.7,0,1.3,0,1.8,0.1l0.3,0l0-0.4C29,56.8,28.6,55.6,28.5,54.3z M27,57.8c-1.6,0-3.5,0.1-4.9,0.8c0-2.7-0.6-5.3-0.6-7.8l0.2,0.1
			c0.2-0.4,0.7-0.5,1.4-0.5c0.9,0,2,0.3,3,0.3c0.6,0,1.2-0.1,1.7-0.3c0.1,0.6,0.1,1.2,0.1,1.8c0,0.3,0,0.7,0,1c0,0.4,0,0.8,0,1.1
			c0.1,1.3,0.4,2.4,0.5,3.5C28,57.8,27.5,57.8,27,57.8z"/>
		<path fill="#010101" d="M38.8,50l0-0.4l-0.4,0.1c-0.4,0.1-1.2,0.2-2,0.2c-0.7,0-1.5,0-2.3-0.1c-0.7,0-1.3,0-1.8,0.1
			c0,0-0.1,0-0.1,0c0,0,0,0,0,0c-0.3,0.1-0.7,0.1-0.9,0.3c0,0,0,0,0,0c-0.2,0.1-0.3,0.1-0.5,0.2c0,0-0.1,0-0.2,0
			c-0.2,1.3-0.4,3.1-0.4,4.8c0,1.5,0.1,2.9,0.8,3.7l0.2,0.2l0.2-0.1c0.7-0.5,1.7-0.6,2.7-0.6c1.4,0,2.9,0.3,4,0.4l0.3,0l0-0.3
			c0.2-2.2,0.5-4.7,0.5-7C38.8,50.8,38.8,50.4,38.8,50z M37.7,57.9c-1-0.1-2.4-0.3-3.7-0.3c-1,0-1.9,0.1-2.8,0.6
			c-0.4-0.6-0.5-1.8-0.5-3c0-1.5,0.2-3.2,0.4-4.5l0.4,0.1c0,0,0-0.1,0.1-0.1c0.4-0.2,1.3-0.2,2.4-0.2c0.7,0,1.5,0,2.3,0.1
			c0.7,0,1.3,0,1.8-0.1c0,0.3,0,0.6,0,0.9C38.2,53.4,37.9,55.8,37.7,57.9z"/>
		<path fill="#010101" d="M50.8,47.9c0,0.2-0.2,0.3-0.4,0.3c-0.2,0-0.3,0.1-0.5,0.1c-0.1,0-0.2,0-0.3,0c-2.4,0.9-5.6,1.9-7.7,1.8
			c-0.1,0-0.3,0-0.4,0l0,0.7c0.1,0,0.3,0,0.4,0c2.4,0,5.9-1.1,8.4-2.1c-0.2,3.6-2,6.8-3,10.3c-1.2-0.1-3.8-0.9-5.6-1
			c-0.5,0-0.9,0-1.3,0.2c0,0,0-0.1,0-0.1c0-2.5,0.7-5,0.8-7.7c0-0.1,0-0.1,0-0.2l0.1,0c0,0,0-0.1,0-0.2c-0.2,0.2-0.5,0.3-0.8,0.3
			c0,0,0,0.1,0,0.1c0,2.5-0.7,5.1-0.8,7.7c0,0.2,0,0.4,0,0.7l0,0.7l0.5-0.4c0.2-0.2,0.8-0.4,1.4-0.4c1.8,0,4.5,0.9,5.8,1
			c0,0,0,0,0,0l0.2,0l0.1-0.3c1-3.6,3-7.1,3.1-11.2l0-0.5L50.8,47.9z"/>
		<path fill="#010101" d="M5,67.4l-0.3,0l0-0.3c0-0.9,0.2-1.7,0.2-2.5l0,0c0-0.2,0-0.5,0-0.7l0,0c0,0,0,0,0,0l0,0
			c0-0.1,0,0.1-0.1-0.2l0,0c0-0.1,0-0.2,0.1-0.2l0,0C5,63.4,5,63.4,5.1,63.4l0,0h0c0.2,0,0.2,0.1,0.2,0.1l0,0c0,0,0,0,0,0l0,0
			c0,0,0,0,0.1,0.1l0,0l0.1,0.1l0,0c0.7,0.9,3.3,1.2,5.3,1.2l0,0c0.8,0,1.5,0,1.9-0.1l0,0l0,0.7c-0.5,0-1.2,0.1-2,0.1l0,0
			c-1.8,0-3.9-0.2-5.2-1l0,0c0,0,0,0.1,0,0.1l0,0c0,0.8-0.1,1.5-0.2,2.2l0,0c0.2,0,0.4,0,0.6,0l0,0c1.9,0,3.7-0.7,5.7-0.6l0,0
			c0.5,0,1,0.1,1.6,0.2l0,0h0L13,67c-0.5-0.1-1-0.2-1.5-0.2l0,0c-1.8,0-3.7,0.7-5.7,0.6l0,0C5.6,67.5,5.3,67.5,5,67.4L5,67.4z"/>
		<path fill="#010101" d="M53.2,67.3c-1.7,0-3.7-0.7-5.2-0.7l0,0c-0.5,0-1,0.1-1.2,0.3l0,0l-0.3-0.6c0.4-0.3,1-0.4,1.6-0.4l0,0
			c1.6,0,3.6,0.7,5.2,0.7l0,0c1,0,1.7-0.2,2.1-0.8l0,0c-0.4,0-0.8,0-1.3,0l0,0c-1.9,0-4.3-0.3-5.5-0.7l0,0c-0.4-0.2-0.7-0.2-0.8-0.7
			l0,0l0.5,0l0.1-0.1c0,0,0,0,0.1,0l0,0c0.1,0,0.2,0.1,0.4,0.2l0,0c0.4,0.1,0.9,0.2,1.5,0.3l0,0c1.2,0.2,2.7,0.3,3.9,0.3l0,0
			c0.6,0,1.2,0,1.6-0.1l0,0c0.1-0.2,0.1-0.5,0.1-0.7l0,0l0.6,0c0.1,0.3,0.1,0.6,0.2,0.9l0,0l0.1,0.3l-0.2,0.1
			c-0.1,0-0.2,0.1-0.3,0.1l0,0c-0.5,1.2-1.6,1.6-2.7,1.6l0,0C53.3,67.3,53.3,67.3,53.2,67.3L53.2,67.3z"/>
		<path fill="#010101" d="M4.2,55.4c-0.1-0.1-0.2,0-0.3-0.1c-0.3,0-0.8,0.1-1.3,0.1c-0.1,0-0.2,0-0.3,0.1c-0.2,0-0.3,0.1-0.5,0.1
			l0,0.2l0.3,0l-0.6,0c0,1,0.5,3,1.1,4.7c0.6,1.8,1.2,3.3,2,3.7l0.2-0.6h0c-0.2,0-1.1-1.6-1.6-3.3c-0.5-1.5-0.9-3.2-1-4.2
			c0.5,0,1.4-0.1,1.8-0.1c0,0,0,0,0.1,0c0.6,0.3,0.7,1,1.1,1.9c0.9,1.8,1.4,4.1,2,6.2l0.6-0.2c-0.6-2-1.1-4.4-2.1-6.3
			C5.2,56.8,5,55.9,4.2,55.4z"/>
		<path fill="#010101" d="M54,64.5c0.1-1,1.4-4.9,2.6-6.8l0,0c-0.3,0-0.6,0.1-0.9,0.1l0,0c-1.8,0-4.1-0.7-5.2-1.3l0,0l0.2-0.6
			c1.1,0.5,3.3,1.2,5,1.2l0,0c0.7,0,1.3-0.1,1.7-0.3l0,0l0.3,0.6c0,0,0,0,0,0l0,0c0,0,0,0,0,0l0,0c-0.9,0.6-3.1,6.5-3,7.2l0,0l0,0
			l-0.2,0l-0.4,0.2C54,64.6,54,64.5,54,64.5L54,64.5z M50.5,56.4L50.5,56.4L50.5,56.4L50.5,56.4L50.5,56.4L50.5,56.4z"/>
		<path fill="#010101" d="M50.2,64.9c0.5-1.2,1.6-4.9,2.4-6.8l0,0c0.3-0.6,0.4-1.1,0.9-1.3l0,0l0.2,0.6v0c0,0-0.1,0.1-0.1,0.2l0,0
			c-0.1,0.2-0.2,0.4-0.4,0.7l0,0c-0.3,0.6-0.6,1.4-0.9,2.3l0,0c-0.6,1.7-1.2,3.6-1.5,4.5l0,0L50.2,64.9L50.2,64.9z"/>
		<path fill="#010101" d="M4.5,55.2C4.5,55.2,4.5,55.2,4.5,55.2c-0.7,0-1.5,0.1-2.2,0.3c-0.2,0.1-0.4,0.1-0.6,0.2l0.2,0.3
			c0.6-0.5,1.7-0.7,2.7-0.7C4.6,55.3,4.5,55.3,4.5,55.2z"/>
		<path fill="#010101" d="M8.4,57.4c-0.2-0.9-0.2-1.5-0.5-1.9c-0.1,0-0.2,0-0.3,0c-0.1,0.1-0.2,0.1-0.4,0.2c0,0,0,0,0.1,0.1
			c0.1,0.1,0.2,0.7,0.5,1.9c0.4,1.7,0.1,6.5,2,7.9l0.3-0.6C8.7,64.1,8.7,59.3,8.4,57.4z"/>
		<path fill="#010101" d="M11.2,55.9c-0.3,0.1-0.7,0.2-1.2,0.2c-0.9,0-1.9-0.3-2.8-0.4c-0.3,0.1-0.6,0.2-0.9,0.3l0,0.3
			c0.9,0,2.3,0.5,3.6,0.5c0.5,0,0.9-0.1,1.4-0.2L11.2,55.9z"/>
		<polygon fill="#010101" points="6.4,56.2 6.4,56.2 6.4,56 6.4,56.2 6.4,56.2 		"/>
		<path fill="#010101" d="M0.3,34.6c-0.1-0.1-0.2-0.3-0.3-0.4l0,0h0L0.2,34c0,0,0-0.1,0-0.1l0,0c0-2.2,1.5-5.1,2.2-6.4l0,0
			c2.7-4.5,7.7-8.6,12.3-8.9l0,0c0.3,0,0.5,0,0.8,0l0,0c1.4,0,2.4,0.4,3.1,1l0,0c0.7,0.6,1,1.5,1,2.5l0,0c0,1.8-1.1,4-2.7,6l0,0
			c-2.1,2.5-8.7,8.2-13.4,8.2l0,0c-0.6,0-1.2-0.1-1.8-0.4l0,0l-0.2,0.5C0.8,36.1,0.4,35.4,0.3,34.6L0.3,34.6z M3.6,35.6
			c4.3,0.1,11-5.6,12.9-8l0,0c1.6-1.9,2.5-4,2.5-5.6l0,0c0-1.7-0.9-2.8-3.5-2.8l0,0c-0.2,0-0.5,0-0.7,0l0,0
			c-4.4,0.3-9.3,4.3-11.9,8.6l0,0c-0.7,1.1-2.1,4.1-2.1,6l0,0c0,0.1,0,0.3,0,0.4l0,0C1.5,35.2,2.5,35.6,3.6,35.6L3.6,35.6z"/>
		<path fill="#010101" d="M0.9,18.9l0.4-0.5C2.4,19,3.2,20.4,4,21.2l0,0c1.4,1.5,3.1,2.2,4.7,3.6l0,0l-0.4,0.5
			c-1.5-1.3-3.2-2.1-4.7-3.7l0,0c-0.4-0.4-0.8-0.9-1.1-1.4l0,0c1.4,2.9,2.4,6.1,4.1,8.5l0,0h0l-0.5,0.4C3.9,26.2,2.9,22,0.9,18.9
			L0.9,18.9z"/>
		<path fill="#010101" d="M18.6,23.4c-0.1,0.9-0.5,1.9-1.1,2.7c-0.6,2.6-1.1,5.5-2.7,7.6c-1.2,1.6-3,2.8-4.6,2.7c-1,0-2-0.5-2.8-1.6
			l-0.5,0.4c0.9,1.2,2.1,1.8,3.3,1.8l0,0c1.9,0,3.8-1.3,5.1-3c2.4-3.2,2.6-7.7,3.6-10.6L18.6,23.4z"/>
		<path fill="#010101" d="M53.3,24.7c-1.3-1.7-3.4-2.5-5.5-2.5c-0.4,0-0.9,0-1.3,0.1c-0.1,0-0.2,0-0.3,0c-2.8,0-5.7,2.5-5.8,6.1
			c0,0.1,0,0.2,0,0.3c0.1,4.7,3.9,7.1,7.4,7.1l0,0c1.4,0,2.9-0.3,4-1c1.7-1.1,2.7-3.4,2.7-5.7C54.6,27.5,54.2,25.9,53.3,24.7z
			 M51.6,34.1c-1.1,0.6-2.4,1-3.7,1c-3.4-0.1-6.8-2.2-6.9-6.5c0-0.1,0-0.2,0-0.2c0-1.1,0.3-2,0.8-2.8l0.3,0.2
			c0.9-1.5,2.5-2.4,4.2-2.7c0.6-0.5,1.6-0.7,2.1-0.1c1.8,0.2,3.4,0.9,4.4,2.3c0.8,1,1.2,2.4,1.1,3.9C54,31.1,53.1,33.2,51.6,34.1z"
			/>
		<path fill="#010101" d="M40.1,29.2c0-1,0.3-2,0.8-2.8l0,0h0l0.5,0.4c-0.5,0.8-0.7,1.6-0.7,2.5l0,0c0,1.5,0.6,3.1,1.5,4.3l0,0
			c0.9,1.2,2.2,2,3.4,2l0,0c0.4,0,0.8-0.1,1.2-0.2l0,0l0.2,0.6c-0.5,0.2-1,0.3-1.5,0.3l0,0C42.7,36.1,40.1,32.6,40.1,29.2L40.1,29.2
			z"/>
		<path fill="#010101" d="M32.7,34.4c0.1-0.5,0.2-0.9,0.2-1.3c0-1.9-1.1-2.6-1.5-4.7c-0.3-1.4-0.4-2.8-0.4-4.3c0-2.3,0.3-4.7,0.3-7
			c0-0.3,0-0.7,0-1c-0.1-2.9-0.2-5.8-0.3-8.7c0-0.1,0-0.2,0-0.3c0-1.5,0.3-2.9,0.4-4.4c-0.5-0.7-0.5-1.9-0.2-2.8l-0.3,0
			c0,0.2,0,0.3,0,0.5c0,0.1,0,0.2,0,0.2h0c0,0.1,0,0.1,0,0.2c0,2-0.5,4.1-0.5,6.3c0,0.1,0,0.2,0,0.3c0,2.9,0.2,5.8,0.3,8.7
			c0,0.3,0,0.7,0,1c0,2.2-0.3,4.6-0.3,7c0,1.5,0.1,3.1,0.4,4.5c0.5,2,1.3,2.8,1.5,3.9C32.7,32.9,32.8,33.7,32.7,34.4z"/>
		<path fill="#010101" d="M35.3,4.6L35.3,4.6c-1.3,1.5-2.5,2.1-3.7,2.1c-1.7,0-3.5-1.6-5.1-3.8L26,3.2c1.7,2.3,3.5,4.1,5.6,4.1h0
			c1,0,2-0.4,3.1-1.3C34.8,5.5,35,5,35.3,4.6z"/>
		<path fill="#010101" d="M32.9,32.4c-0.1-0.5-0.5-1-1.1-1.1c-0.3,0-0.6,0.1-1,0.4c-0.8,0.5-1.1,1.7-1.1,2.8c0,1,0.3,2,1.2,2.2
			l0.1-0.7c-0.4,0-0.7-0.6-0.7-1.5c0-0.9,0.4-2,0.8-2.3c0.3-0.2,0.5-0.3,0.7-0.3c0.2,0,0.3,0.1,0.5,0.6c0,0,0,0.1,0,0.1
			c0.5,0.6,0.4,1.8,0.1,2.6c0,0.4,0,0.7-0.1,0.9l0.6,0c0-0.3,0.1-1.1,0.1-2C33.1,33.6,33.1,33,32.9,32.4z"/>
		<path fill="#010101" d="M36.3,19.1c-1.8,0-3.9,0.4-5.9,0.4c-0.6,0-1.2-0.1-1.8-0.2c-2.4-0.5-3.7-2.1-5.8-3.3l-0.1,0.2
			c0.1,0.2,0.2,0.5,0.3,0.7c1.7,1,3.1,2.5,5.5,3c0.6,0.1,1.2,0.2,1.9,0.2c2.1,0,4.2-0.4,5.9-0.4L36.3,19.1z"/>
		<path fill="#010101" d="M36.7,13.7c0-0.9,0.2-1.9,0.3-2.9h0c-0.2,0.4-0.5,0.8-0.7,1.1c-0.1,0.6-0.1,1.1-0.1,1.7c0,0.2,0,0.3,0,0.5
			c-0.5-0.2-1-0.3-1.6-0.3c-1.4,0-3,0.4-4.4,0.3c-1.6,0-2.9-0.5-3.7-2.4L26.1,12c0.1,0.6,0.6,1.2,0.9,1.7c0,0,0,0.1,0,0.1
			c0.9,0.8,2,1.1,3.1,1.1c1.5,0,3.1-0.4,4.4-0.3c0.7,0,1.3,0.1,1.8,0.4l0.6,0.4l-0.1-0.7C36.7,14.3,36.7,14,36.7,13.7z"/>
		<path fill="#010101" d="M28,1.5l-0.1,0c-0.1,0.3-0.3,0.8-0.4,1.2l0.3,0.1c-0.2,2.2-0.6,4.4-1.2,6.4l0.6,0.2c0.6-1.9,1-3.9,1.2-5.8
			C28,2.9,28,2.2,28,1.5z"/>
	</g>
	<path opacity="0.18" fill="#010101" d="M13.8,19.7c1.2,1.4,2.5,2.5,1.2,6.4c-1.3,3.8-12.4,6.7-13.7,6.2c-1.3-0.5-0.1,7,8.8,1.2
		s10.3-8.4,9.6-11.4c-0.7-3-3-5.7-4.9-3.5S13.8,19.7,13.8,19.7z"/>
	<path fill="#CFB8A3" d="M44.7,23.7c-0.7,3.9-2.4,5.4,2.2,7.1c4.6,1.6,6.9-0.1,6.7,0.5c-0.2,0.7,0,3.4-4.2,3.8
		c-4.2,0.4-11.3-2.6-9.1-7.8C42.4,22.1,44.7,23.7,44.7,23.7z"/>
	<path fill="#D2D5D5" d="M5,37.1c0,0,34.5-1.2,38.5-1.2c4,0,13.7,0.5,13.7,0.5s-0.4,6.7-1.9,8.5c-1.5,1.8-4.6,0.6-5.9,1.1
		c-1.3,0.4-40,1.3-40.8,1.3C7.8,47.3,3.5,41.5,5,37.1z"/>
	<polygon fill="#382114" points="12.5,51.9 13.3,56.9 18.1,57.2 17.3,51.8 	"/>
	<path fill="#382114" d="M22.4,51.4l0.8,5.7l4.2-0.9l-0.2-4.3C27.2,51.9,22.8,50,22.4,51.4z"/>
	<polygon fill="#382114" points="32.2,51.5 38.2,51.2 37.4,56.6 31.7,56.7 	"/>
	<polygon fill="#382114" points="42,51.8 49,50.6 47.2,57.6 41.6,56.6 	"/>
	<path opacity="0.56" fill="#5C4455" d="M12.4,61.7c1.9,0.9,13.6,0.8,17.1,1.1s17.2-0.5,18-1.4c0.8-0.9-0.2,4.2-0.2,4.2l-34.2,0.7
		L12.4,61.7z"/>
	<path opacity="0.25" fill="#9E7C64" d="M5.5,43.2c4.8,0.3,12.6,0.4,18.8,0.1c6.3-0.4,20.5-0.7,23.4,0.7c2.9,1.4,4.3-0.7,4.1,2.2
		c-0.2,2.9-3.5,18.1-4.2,18.4c-0.8,0.3-7.5,0.7-8.1,0.7c-0.6,0,3.9-13.1,2.3-14.4c-1.5-1.3-5.9-0.9-6.3,0.2
		c-0.4,1.1-2.3,13.8-2.3,13.8l-6.1-0.3l1.2-15.9l-19-0.2L5.5,43.2z"/>
	<path opacity="0.43" fill="#9E7C64" d="M20.6,68.2c4.2,0.7,9.7,0.3,11.1,2.4c1.4,2.1,2.2,10,0.9,14.3c-1.3,4.3-0.1,11.6-0.6,13.2
		c-0.4,1.6-1.6,9.8-0.6,12.7c1,3,2,7.1,0.7,10c-1.3,2.9-2.8,6.1-2.2,9.3c0.6,3.2,2,6.8,1.6,9.6c-0.5,2.7-3.6,5.2-2.6,9.5
		c1,4.3,1.3,11.4,1.3,11.4l4,0c0,0,1.8-9.8,1-13.6c-0.8-3.9-1.6-7.3-1.1-16.1c0.5-8.9,3.3-17.2,2.3-20.4c-1-3.2-1.6-6.4-0.7-13.2
		s1.3-20,1.1-23.6c-0.2-3.6,1.8-6.6,2-5.8c0.2,0.8,4.7-1.3,4.7-1.3s-20.7-2-23,0.9L20.6,68.2z"/>
	<path fill="#9E7C64" d="M33.2,74.4c0,0-0.2-6.6,1-5.2c1.1,1.4,1.5,3.9,1.5,3.9L33.2,74.4z"/>
	<path fill="#9E7C64" d="M24.3,107.6c0,0-0.4-5.2,0.5-5c0.9,0.2,1.3,2.5,1.2,4.1C26.1,108.2,24.3,107.6,24.3,107.6z"/>
	<path opacity="0.5" fill="#382114" d="M21.2,98.8c0.8-0.2,8.4,0.3,11.1,0.4c2.7,0,7,6.4,7,7.1c0,0.7,0.5-9.6,0.5-9.6L21,97.2
		L21.2,98.8z"/>
	<path fill="#6C1C10" d="M20.4,130.8c0.6-0.2,19.8-0.1,20,0.1c0.2,0.2,0.2,1.8,0.1,2.7c-0.1,0.9-19.8,1-20,0.7
		c-0.2-0.3,0.2-2.8,0.2-2.8"/>
	<polygon fill="#6C1C10" points="25.4,147.5 26.6,147.2 26.6,151.2 24.8,151.3 	"/>
	<polygon fill="#6C1C10" points="11,38.1 11,40.6 13.3,39.9 13.5,38.1 	"/>
	<polygon fill="#6C1C10" points="15.6,37.6 15.6,39.9 17.7,40 18.1,38.1 	"/>
	<polygon fill="#6C1C10" points="19.4,37.2 19.6,40.1 22.4,39.9 21.9,37.8 	"/>
	<polygon fill="#6C1C10" points="24,37.5 23.8,40 26.2,39.5 26.5,37.7 	"/>
	<polygon fill="#6C1C10" points="28.6,37.3 28.5,39.6 30.6,39.8 31.1,38 	"/>
	<polygon fill="#6C1C10" points="33,37.1 33.2,40.1 35.9,39.8 35.4,37.8 	"/>
	<polygon fill="#6C1C10" points="37.5,37.5 37.4,40 39.7,39.4 40,37.6 	"/>
	<polygon fill="#6C1C10" points="42.1,37.3 42,39.6 44.1,39.8 44.6,38 	"/>
	<polygon fill="#6C1C10" points="45.5,37 45.7,40 48.5,39.8 48,37.7 	"/>
	<path fill="#9B9695" d="M39,149.1c-2,3.4-0.8,5.6-5.6,7.8c-4.8,2.2-10.9,0.3-11,0.7c-0.1,0.4,0,3.6,0,3.6l17-0.2L39,149.1z"/>
	<path fill="#6A5A55" d="M22.7,169.1c0,0-2-3.9-0.8-4.6c1.1-0.7,1.8,0.4,1.9,1.3c0.1,0.9,0.3,3.6,0.3,3.6L22.7,169.1z"/>
	<path fill="#6A5A55" d="M27.3,168.5c0,0-0.5-3.6,0.4-4.4c0.9-0.8,1.3,0.8,1.3,2s-0.3,2.7-0.3,2.7L27.3,168.5z"/>
	<path fill="#6A5A55" d="M31.3,168.8c0,0-1.4-3.5-0.1-4.5c1.3-1,2.1-1,2.2,0.2c0.1,1.2-0.3,3.8-0.3,3.8L31.3,168.8z"/>
	<path fill="#4B3E31" d="M35.9,168.6c0,0-0.5-3.2,0.3-3.8c0.8-0.6,1.4-1.2,1.3,0.2c-0.1,1.4-0.3,3.6-0.3,3.6L35.9,168.6z"/>
	<path opacity="0.65" fill="#4B3E31" d="M20.9,170.4c1.8,1,4.4,2,8.1,1.7c3.6-0.3,10.2-1.7,10.8-2.8c0.6-1.1,0,3.8,0,3.8l-18.8,0.7
		L20.9,170.4z"/>
</g>
</svg>

<svg version="1.1" xmlns="http://www.w3.org/2000/svg" xmlns:xlink="http://www.w3.org/1999/xlink" x="402" y="202"
	 width="60" height="70"  viewBox="0 0 42.8 45.7" enable-background="new 0 0 42.8 45.7" xml:space="preserve">
<g>
	<g>
		<path fill="#010101" d="M19,40.5c-4.7-0.1-12.5-1.7-13.8-8.3l0,0C5.1,31.6,5,31,5,30.5l0,0c0-2.9,1.9-4.8,4.8-4.8l0,0
			c0,0,0,0,0.1,0l0,0c2,0.1,6.9,0.6,8.5,2.5l0,0c1.6,0.5,3.2,1.5,4.4,2.8l0,0c1,1.1,1.4,2.6,2.3,3.2l0,0c0.7,0.5,1.7,0.6,2.6,0.9
			l0,0c1.5,0.5,3.1,0.9,4.8,1l0,0c0.3,0,0.7,0,1,0l0,0c2.2-0.2,3.1-2.9,5.4-3.5l0,0l0.3-0.1l0.1,0.3c0,0.3,0.1,0.5,0.1,0.8l0,0
			c0,1.8-1.2,2.9-2.7,3.5l0,0c-1.5,0.6-3.3,0.8-4.9,0.7l0,0c-1.1,0-2.1-0.1-2.7-0.2l0,0c-0.7-0.1-1.4-0.5-2.1-0.5l0,0
			c-0.2,0-0.3,0-0.5,0.1l0,0c-0.7,0.2-0.9,0.9-1.6,1.6l0,0C23.3,40.3,21,40.6,19,40.5L19,40.5C19,40.5,19,40.5,19,40.5L19,40.5z
			 M5.6,30.5c0,0.5,0,1,0.1,1.5l0,0c1.1,6.1,8.6,7.8,13.2,7.8l0,0c0,0,0,0,0,0l0,0c2,0,4-0.2,5.6-1.6l0,0c0.6-0.5,0.8-1.3,1.8-1.7
			l0,0c0.2-0.1,0.5-0.1,0.7-0.1l0,0c0.8,0,1.6,0.4,2.2,0.5l0,0c0.6,0.1,1.5,0.2,2.6,0.2l0,0c1.5,0,3.3-0.1,4.6-0.7l0,0
			c1.4-0.6,2.3-1.4,2.3-2.8l0,0c0-0.1,0-0.2,0-0.3l0,0c-1.7,0.6-2.6,3.1-5.2,3.4l0,0c-0.4,0-0.7,0.1-1.1,0l0,0c-1.7,0-3.4-0.5-4.9-1
			l0,0c-0.8-0.3-1.9-0.4-2.8-1l0,0c-1.2-0.9-1.6-2.4-2.4-3.3l0,0c-1.3-1.4-3.3-2.6-5.1-2.8l0,0l0.1-0.5c-1.8-1.2-5.8-1.7-7.5-1.7
			l0,0c0,0,0,0-0.1,0l0,0C7.2,26.4,5.7,27.9,5.6,30.5L5.6,30.5z"/>
		<path fill="#010101" d="M35.8,30.8c-0.1-0.3-0.1-0.7-0.1-1l0,0c0-0.6,0.1-1.2,0.4-1.8l0,0c0,0,0,0,0,0l0,0
			c-0.3-0.1-0.2-0.1-0.3-0.2l0,0c0,0,0,0,0,0l0,0c0,0,0-0.1,0-0.1l0,0c0,0,0-0.1,0-0.1l0,0l-0.1-0.2l0.1-0.1c0.5-1,1.4-1.4,2.3-1.4
			l0,0c1.9,0,3.9,1.7,3.9,3.7l0,0c0,0.6-0.2,1.2-0.6,1.7l0,0c-0.7,0.9-1.8,1.4-2.9,1.4l0,0c0,0,0,0,0,0l0,0
			C37.2,32.7,36.1,32.1,35.8,30.8L35.8,30.8z M36.8,27.8c-0.3,0.6-0.5,1.3-0.5,2l0,0c0,0.3,0,0.6,0.1,0.8l0,0c0.3,1,1.1,1.5,2,1.5
			l0,0c0.9,0,1.9-0.4,2.4-1.1l0,0c0.3-0.5,0.5-0.9,0.5-1.3l0,0c0-0.7-0.4-1.5-1.1-2.1l0,0c-0.6-0.5-1.3-0.9-2-1l0,0l-0.1,0.3
			c-0.1,0-0.1,0-0.2,0l0,0c0,0,0,0,0,0l0,0C37.5,26.9,37.1,27.2,36.8,27.8L36.8,27.8z M36,27.4L36,27.4l0-0.1L36,27.4L36,27.4z"/>
		<path fill="#010101" d="M37.1,25.3L37.1,25.3l-0.1,0c0,0-0.1,0-0.1-0.3l0,0c0-0.2,0.2-0.3,0.3-0.4l0,0l0.2-0.1l0.1,0.2
			c1.3,2.5,1.5,6,2.8,7.9l0,0l-0.5,0.4C38.4,31,38.2,27.6,37.1,25.3L37.1,25.3z"/>
		<path fill="#010101" d="M34.4,31.8c0.5-0.3,1.7-1.5,3.1-2.7l0,0c1.4-1.2,2.7-2.3,3.8-2.4l0,0c0.3,0,0.6,0.1,0.8,0.4l0,0h0
			l-0.5,0.4c-0.1-0.1-0.2-0.2-0.3-0.2l0,0c-0.6,0-2.1,1-3.4,2.2l0,0c-1.3,1.2-2.6,2.4-3.2,2.8l0,0L34.4,31.8L34.4,31.8z"/>
		<path fill="#010101" d="M37.5,29.1c-0.8-0.2-1.8-0.2-2.6-1l0,0l-0.3-0.3l0.3-0.2c0.1-0.1,0.2-0.1,0.3-0.1l0,0
			c0.2,0,0.3,0.1,0.3,0.2l0,0c0,0.1,0,0.1,0,0.1l0,0c0,0,0,0,0,0l0,0l0,0c0.5,0.3,1.3,0.4,2,0.6l0,0c1.7,0.5,3.4,1,5.1,1.7l0,0
			l-0.2,0.6C40.9,30.1,39.3,29.5,37.5,29.1L37.5,29.1z"/>
		<path fill="#010101" d="M17.1,28.4c0.3-0.8,0.8-1.3,0.9-1.8l0,0c0-0.2,0-0.3,0-0.4l0,0c0-0.6-0.4-0.7-0.4-1.5l0,0c0,0,0,0,0,0l0,0
			c0.1-0.7,0.1-1.2,0.6-1.3l0,0c0.6,0.1,0.6,0.7,0.6,1.3l0,0c0,0.2,0,0.5-0.1,0.8l0,0l-0.3-0.1c0.1,0.2,0.2,0.5,0.2,0.9l0,0
			c0,0.2,0,0.3-0.1,0.5l0,0c-0.2,0.8-0.8,1.3-0.9,1.9l0,0L17.1,28.4L17.1,28.4z M18.2,24.9c0-0.1,0-0.2,0-0.3l0,0c0-0.1,0-0.2,0-0.3
			l0,0c0,0.1,0,0.2,0,0.4l0,0l0,0c0,0,0,0,0,0l0,0h0C18.2,24.7,18.2,24.8,18.2,24.9L18.2,24.9z"/>
		<path fill="#010101" d="M30.5,32.6c-1.3-0.1-3.5-2.1-4.1-2.4l0,0c-2.9-2-6-4.2-8.6-6.7l0,0l0.2-0.3l0-0.3l-0.1,0.2
			c-1.4-0.5-2.8-1.2-4.1-2l0,0c-1.5-0.4-3.1-0.7-4.4-1.1l0,0c-2.8-0.9-6.3-2-8.8-4.2l0,0L0,15.4l0.8-0.1c0.2,0,0.5,0,0.7,0l0,0
			c4.5,0.1,8.6,3,12.5,5.3l0,0c1.1,0.3,2.2,0.6,3.1,1.1l0,0c0-0.1-0.1-0.2-0.1-0.3l0,0c-1.1-1.7-2-3.5-3-5.2l0,0
			c-2.3-3.7-5.1-7.6-7.8-10.7l0,0L6.5,5c2.7,1.7,5.4,5.6,7.1,8.5l0,0c1.2,2.2,3.1,4.9,4,7.5l0,0c0.3,0.5,0.7,1,1,1.5l0,0
			c0.1,0,0.2-0.1,0.3-0.1l0,0l0,0c0,0,0-0.1,0.1-0.1l0,0c0.4-2.6,0.5-5.4,1-8.1l0,0c0.5-2.7,1-5.4,2-8l0,0c0.6-1.6,1-4.1,2.1-5.6
			l0,0L24.5,0l0,0.9c0,0.2,0,0.4,0,0.6l0,0c-0.1,4.2-1.1,9.2-2.1,13.1l0,0c-0.6,2.1-1,4.8-2.1,6.9l0,0c2.1-1.2,4.8-1.6,6.7-2l0,0
			C29,19,33,17,35.9,17l0,0c0.7,0,1.4,0.1,2,0.5l0,0l0.2,0.1l0,0.2c-0.2,1.6-2.1,2.3-4.1,2.9l0,0c-2,0.6-4.2,0.9-4.9,1.1l0,0
			c-3,0.6-6.5,0.5-9.4,1.2l0,0c1.8,0.4,3.6,1.3,5.3,2.2l0,0c1.6,0.9,6.3,3.3,6.5,6.2l0,0c0,0,0,0.1,0,0.1l0,0c0,0.3-0.1,0.5-0.2,0.7
			l0,0C30.9,32.5,30.7,32.6,30.5,32.6L30.5,32.6C30.5,32.6,30.5,32.6,30.5,32.6L30.5,32.6z M26.8,29.6c0.5,0.4,2.9,2.3,3.7,2.3l0,0
			c0.2,0,0.2,0,0.2-0.3l0,0c0,0,0-0.1,0-0.1l0,0c0-2.2-4.6-4.9-6.2-5.7l0,0c-1.7-0.9-3.4-1.8-5.2-2.2l0,0c0,0,0,0,0,0l0,0L19.3,24
			C21.6,26,24.2,27.9,26.8,29.6L26.8,29.6z M27.1,20.1c-2,0.4-4.8,0.9-6.7,2.1l0,0c2.8-0.5,5.9-0.5,8.5-1l0,0c0.8-0.2,2.9-0.5,4.9-1
			l0,0c1.8-0.5,3.4-1.3,3.6-2.1l0,0c-0.4-0.2-0.9-0.3-1.5-0.3l0,0c0,0,0,0,0,0l0,0C33.2,17.6,29.2,19.6,27.1,20.1L27.1,20.1z
			 M22.4,6.5c-0.9,2.5-1.4,5.1-1.9,7.8l0,0c-0.4,2.2-0.5,4.5-0.8,6.8l0,0c1-2,1.4-4.6,2.1-6.8l0,0c1-3.7,2-8.3,2.1-12.3l0,0
			C23.3,3.4,22.9,5.2,22.4,6.5L22.4,6.5z M9.5,19.5c0.7,0.2,1.5,0.4,2.3,0.6l0,0c-3.3-2-6.6-4-10.1-4.1l0,0
			C3.9,17.7,7,18.7,9.5,19.5L9.5,19.5z"/>
		<path fill="#010101" d="M27.2,26.6L27.2,26.6l0.3-0.6c0.1,0,0.2,0.1,0.3,0.1l0,0c0.6,0.1,1.8-1.1,2.1-1.9l0,0
			C30,23.8,30,23.4,30,23l0,0c0-1.6-0.9-3.3-1.8-4.3l0,0c-2.1-2.5-5.9-3.3-8.8-3.5l0,0c-0.4,0-0.8,0-1.1,0l0,0
			c-4.1,0-7.9,1.2-11,4.5l0,0l-0.4-0.5c3.3-3.4,7.3-4.7,11.5-4.7l0,0c0.4,0,0.8,0,1.2,0l0,0c3,0.2,6.9,0.9,9.2,3.7l0,0
			c1,1.2,2,3,1.9,4.8l0,0c0,0.5-0.1,1-0.3,1.4l0,0c-0.4,1-1.5,2.3-2.6,2.3l0,0C27.5,26.7,27.4,26.7,27.2,26.6L27.2,26.6z"/>
		<path fill="#010101" d="M14.4,37.2c-1.5-0.8-2.9-2.7-3.6-3.6l0,0c-0.6-0.2-1.9-0.6-2.6-1.2l0,0l-0.9-0.7l1.1,0.1
			c0.1,0,0.3,0,0.4,0l0,0c1.4,0,3-0.6,3.5-2.2l0,0c0.1-0.2,0.1-0.5,0.1-0.8l0,0c0-0.7-0.2-1.3-0.5-1.9l0,0c-0.3-0.5-0.8-0.8-1.2-0.8
			l0,0c-0.1,0-0.3,0-0.4,0.1l0,0c0,0,0,0.1,0,0.1l0,0h0l-0.4,0.1l-0.1,0.2l0,0c0,0-0.3-0.2-0.3-0.4l0,0c0-0.1,0-0.2,0.1-0.3l0,0
			l0-0.1l0.1,0c0.3-0.2,0.6-0.3,0.9-0.3l0,0c1.4,0.1,2.4,1.8,2.3,3.4l0,0c0,0.3-0.1,0.7-0.2,1l0,0c-0.5,1.6-1.9,2.4-3.3,2.6l0,0
			c0.6,0.2,1.2,0.4,1.5,0.6l0,0l0.1,0l0,0c0.8,0.9,2.2,2.8,3.5,3.5l0,0c2.3,1.2,4.8,0.7,7.3,1.4l0,0l-0.1,0.6
			C19.5,37.9,16.9,38.4,14.4,37.2L14.4,37.2z"/>
		<path fill="#010101" d="M7.3,42.2L7.3,42.2l-0.4,0L7,41.7c0-0.1,0-0.1,0.1-0.2l0,0l-0.1,0c0-0.1,0-0.3,0-0.4l0,0
			c0-0.6,0.1-1.1,0.4-1.6l0,0l0.1-0.2l0.2,0c0,0,0.1,0,0.1,0l0,0c0.4-1.1,0.9-2.2,1.5-3l0,0h0l0.5,0.4c-0.5,0.7-1,1.7-1.4,2.7l0,0
			c0.2,0.1,0.4,0.1,0.5,0.2l0,0l0.2,0.1l0,0.2C8.9,41.2,8.3,42.2,7.3,42.2L7.3,42.2C7.3,42.2,7.3,42.2,7.3,42.2L7.3,42.2z M7.7,41.4
			c0.4-0.2,0.6-0.5,0.7-1.1l0,0c-0.1,0-0.2-0.1-0.3-0.1l0,0C8,40.6,7.8,41,7.7,41.4L7.7,41.4z"/>
		<path fill="#010101" d="M20.3,45.3c-0.4-0.4-0.6-0.8-0.6-1.2l0,0c0-0.7,0.6-1,1-1l0,0c0,0,0,0,0.1,0l0,0c-0.1-1.2-0.2-2.4-0.5-3.4
			l0,0l0-0.1l0-0.1c0-0.1,0-0.2,0.3-0.3l0,0c0.2,0,0.3,0.2,0.3,0.2l0,0c0,0,0,0.1,0,0.1l0,0c0,0.1,0,0.1,0,0.1l0,0v0l-0.1,0.1
			c0.2,1,0.4,2.2,0.5,3.3l0,0c0.1,0,0.1,0,0.2,0l0,0c0.3,0,0.6,0.1,0.8,0.3l0,0c0.2,0.2,0.2,0.5,0.2,0.7l0,0c0,0.7-0.5,1.5-1.3,1.6
			l0,0c0,0,0,0,0,0l0,0C20.9,45.7,20.6,45.6,20.3,45.3L20.3,45.3z M20.2,44.1c0,0.1,0.1,0.4,0.4,0.7l0,0C20.9,45,21,45,21.2,45l0,0
			c0.4,0,0.7-0.5,0.7-0.9l0,0c0-0.3,0-0.4-0.4-0.4l0,0c0,0,0,0,0,0l0,0c0,0.1,0.1,0.3,0.1,0.4l0,0c0,0.2-0.1,0.5-0.2,0.7l0,0
			l-0.6-0.1c0-0.3,0-0.6,0-0.9l0,0c0,0-0.1,0-0.1,0l0,0C20.4,43.8,20.2,44,20.2,44.1L20.2,44.1z M20.8,39.8L20.8,39.8L20.8,39.8
			L20.8,39.8L20.8,39.8z"/>
		<path fill="#010101" d="M13.6,34.2c-0.8-0.2-1.1-1-1-1.8l0,0c0-1.3,0.7-2.9,1.9-3l0,0c0.2,0,0.4,0.1,0.6,0.2l0,0h0L14.9,30
			c0.4,0.2,0.8,0.7,0.9,1.3l0,0c0,0.1,0,0.2,0,0.3l0,0c0,1.1-0.8,2.5-2,2.6l0,0C13.8,34.2,13.7,34.2,13.6,34.2L13.6,34.2z
			 M13.2,32.4c0,0.6,0.2,1,0.6,1.1l0,0c0,0,0.1,0,0.1,0l0,0c0.3,0,0.6-0.2,0.9-0.6l0,0c0.3-0.4,0.5-0.9,0.5-1.3l0,0
			c0-0.1,0-0.1,0-0.2l0,0c-0.1-0.6-0.6-0.9-0.9-0.9l0,0c-0.3,0-0.4,0.1-0.4,0.4l0,0c0,0.1,0,0.1,0,0.2l0,0l-0.4,0.1
			C13.3,31.6,13.2,32,13.2,32.4L13.2,32.4z"/>
		<path opacity="0.75" fill="#010101" d="M16.3,34.1c0-0.6,0.2-1.4,0.5-1.9l0,0L16.6,32c0.6-0.6,1.1-0.9,1.6-0.9l0,0
			c0.9,0,1.5,1,1.5,2l0,0c0,0.8-0.4,1.7-1.2,2.3l0,0c-0.4,0.3-0.7,0.4-1.1,0.4l0,0C16.6,35.8,16.3,34.9,16.3,34.1L16.3,34.1z
			 M17.3,32.7c-0.2,0.4-0.3,1-0.3,1.5l0,0c0,0.7,0.2,1.1,0.5,1.1l0,0c0.2,0,0.4-0.1,0.7-0.3l0,0c0.7-0.5,0.9-1.1,0.9-1.8l0,0
			c0-0.8-0.4-1.3-0.9-1.3l0,0c-0.1,0-0.1,0-0.2,0l0,0l0,0.3c0,0,0,0,0,0l0,0c0,0,0,0,0,0l0,0C17.7,32.1,17.5,32.3,17.3,32.7
			L17.3,32.7z"/>
		<path fill="#010101" d="M19.8,35.7c0-1.1,0.5-2.3,1.5-2.4l0,0c0,0,0.1,0,0.1,0l0,0l0,0.1c1,0.1,1.5,1.1,1.5,2l0,0
			c0,0.9-0.5,1.9-1.5,2.1l0,0c-0.1,0-0.2,0-0.2,0l0,0C20.2,37.5,19.8,36.5,19.8,35.7L19.8,35.7z M20.7,34.4
			c-0.2,0.3-0.3,0.8-0.3,1.3l0,0c0,0.7,0.2,1.2,0.7,1.2l0,0c0,0,0.1,0,0.2,0l0,0c0.6-0.1,1-0.7,1-1.4l0,0c0-0.7-0.3-1.3-1-1.3l0,0
			c-0.1,0-0.2,0-0.3,0l0,0l0,0C20.9,34.1,20.8,34.3,20.7,34.4L20.7,34.4z"/>
		<path fill="#010101" d="M3.8,29c0-1.3,0.9-2.6,2.3-2.6l0,0c0.3,0,0.6,0.1,0.9,0.2l0,0h0l-0.2,0.6c-0.2-0.1-0.5-0.2-0.7-0.2l0,0
			c-1,0-1.7,1-1.7,2l0,0c0,0.6,0.3,1.1,1,1.3l0,0L5.3,31C4.3,30.8,3.8,29.9,3.8,29L3.8,29z"/>
	</g>
	<path opacity="0.34" fill="#5D3613" d="M5.2,16.5l-0.6,1.1l8.1,2.9C12.7,20.5,6.2,16.1,5.2,16.5z"/>
	<path opacity="0.62" fill="#5D3613" d="M21.6,8.6L23.3,9c0,0-2.9,11.4-3.3,12.1C19.5,21.7,20.3,9.4,21.6,8.6z"/>
	<path opacity="0.4" fill="#5D3613" d="M21.8,21.2c2.3-0.9,11.4-3.4,12-3.3c0.6,0.1,0.6,2,0.6,2S21.6,22,20.9,22.2
		C20.2,22.4,21.8,21.2,21.8,21.2z"/>
	<path fill="#D2D5D5" d="M19.3,23.6c0.5-0.1,5.7,1.9,7,2.9c1.2,1.1,2.6,1.9,2.5,2.1c-0.1,0.2-1.3,1.5-1.3,1.5s-5.9-3.7-7.3-4.7
		S19.3,23.6,19.3,23.6z"/>
	<path opacity="0.55" fill="#D2D5D5" d="M38.5,27.5c-0.8,0.3-1.5,0.6-1.8,1.5c-0.3,0.9,1,2,0.9,2.5c0,0.5,1,1.1,2.1,0.2
		c1-0.9,2-4.6-1-4.2L38.5,27.5z"/>
	<path fill="#7D443E" d="M5.7,26.9c-0.5,0.1-1.3,0.9-1.3,1.5c0,0.6,0.6,1.4,0.8,1.7c0.2,0.3,0.3-1.6,0.9-2.2
		C6.7,27.3,5.7,26.9,5.7,26.9z"/>
	<path opacity="0.48" fill="#9E7C64" d="M10.9,26.3c1.2,0.1,2,1.3,1.8,2.4c-0.3,1.1-1.4,3.2-2.8,3.3c-1.4,0.1-2.6-0.2-2.6-0.2
		s2.2,0.6,3,1.2c0.8,0.6,0.4,0.6,2.4,2.3c2.1,1.7,6,2.7,8.2,3.1c2.3,0.4,4.9-1,4.9-1s-0.9,1.8-3.8,2.5c-2.9,0.7-7.7,0.1-9.8-0.8
		c-2.1-0.9-6.1-4.5-6.4-7C5.5,29.6,5.2,26,10.9,26.3z"/>
	<path opacity="0.75" fill="#2E150E" d="M14.2,30.4c-0.6,0.4-1.3,1.3-1.3,2.3c0.1,1.1,1.5,1.7,1.9,0.4
		C15.4,31.7,14.9,29.9,14.2,30.4z"/>
	<path opacity="0.75" fill="#2E150E" d="M17.6,32c-0.6,0.6-1.2,1.8-0.9,2.5s1.1,1.3,2,0.2C19.6,33.5,18.9,30.7,17.6,32z"/>
	<path opacity="0.75" fill="#2E150E" d="M21,34.1c-0.4,0.1-0.4,1-0.6,1.6c-0.2,0.6,0.6,1.9,1.4,1C22.6,35.8,22.4,33.6,21,34.1z"/>
</g>
</svg>

<svg version="1.1" xmlns="http://www.w3.org/2000/svg" xmlns:xlink="http://www.w3.org/1999/xlink" x="178" y="232"
	 width="120" height="100"  viewBox="0 0 116.3 40.4" enable-background="new 0 0 116.3 40.4" xml:space="preserve">
<g>
	<path fill="#FFFFFF" d="M0.8,22.1c1.5-3.5,12.6-3.2,15.5-5.1c2.9-1.9,2.9-1.9,2.9-1.9S1,4.7,7.5,2.8C14,1,29,9.1,29,9.1
		s21.5,1.6,30.7,3.5S94,15.1,96.6,13c2.6-2.1-10.6-3.2-10-4.9c0.6-1.7,12.7,1.9,12.7,2.8c-0.1,0.9,4.4-10.3,4.4-10.3l3.4,0.5
		L104,14.4c0,0,11.9,5.4,12,6.8c0.1,1.4-12.2-1.5-12.2-1.5s3.3,6.5-10.3,9.2c-13.7,2.7-27.7,2.8-27.7,2.8s12.5,6,11.3,7.2
		c-1.2,1.2-23.9-3.2-29.6-7c-5.7-3.8-21.9,0.3-30.9-0.1C7.6,31.3-1.8,28.5,0.8,22.1z"/>
	<path fill="#DDD5C0" d="M16.3,23.7c7.2,0.5,37.2,1.6,49.6,2.2c12.3,0.6,29.5,1.2,31.3-1.2c1.8-2.4,2.4-2.6-10.6-2.4
		c-13,0.2-28.9-0.1-38,0.1c-9.1,0.2-27.1-3.8-31.8-3.2S16.3,23.7,16.3,23.7z"/>
	<path fill="#837B87" d="M10.1,20.1c-0.8,0.6-1.4,1-1,1.6c0.5,0.6,1.7,0.6,1.8-0.4C11.1,20.3,10.6,19.8,10.1,20.1z"/>
	<path fill="#837B87" d="M13.5,20.5c-0.4,0.4-0.7,2.2,0,2.1c0.7-0.1,1.2-1,1.3-1.4C14.9,20.8,14,20,13.5,20.5z"/>
	<path fill="#837B87" d="M18.7,20c-0.5,0.6-1.6,1.1-0.6,1.5c0.9,0.4,1.6,0.5,2-0.6C20.3,19.8,19.4,19.2,18.7,20z"/>
	<path fill="#837B87" d="M24.3,20.2c-0.7,0.3-1.7,0.5-1.5,1.1c0.2,0.7,1,1.6,1.6,0.8S25.2,19.8,24.3,20.2z"/>
	<path fill="#837B87" d="M30.1,19.7c-0.7,0.6-1.3,1-1.1,1.7c0.2,0.7,0.7,1.4,1.5,0.5C31.1,21,31,18.8,30.1,19.7z"/>
	<path fill="#5F4E34" d="M36.4,13.2c-0.9,0.8-1.8,1-1.3,1.7c0.5,0.7,1.4,1.1,1.9,0.6C37.4,15,37.3,12.5,36.4,13.2z"/>
	<path fill="#5F4E34" d="M41.1,13.3c-0.7,0.8-1.2,1.2-0.7,1.9c0.5,0.7,1,1.3,1.6,0.1c0.6-1.1-0.2-2.5-0.9-1.8
		C40.5,14.3,41.1,13.3,41.1,13.3z"/>
	<path fill="#5F4E34" d="M35.8,19.2c-0.9,0.5-1.8,0.5-1.4,1.3c0.4,0.8,0.7,1.9,1.8,0.8C37.2,20.2,37.2,18.5,35.8,19.2z"/>
	<path fill="#5F4E34" d="M40.9,20.2c-0.8,0.7-1.5,0.6-1.1,1.5c0.4,0.9,0.3,1.5,1.2,1.1c0.9-0.3,1.5-1,1.4-1.7
		C42.3,20.4,41.3,19.8,40.9,20.2z"/>
	<path fill="#5F4E34" d="M46.5,19.9c-0.6,0.4-1.9,0.4-1.6,1.1c0.3,0.7,0,1.8,1.1,1.3c1.1-0.6,1.4-0.3,1.6-1.2
		C47.8,20.1,46.8,19.6,46.5,19.9z"/>
	<path fill="#5F4E34" d="M46.7,13.3c-0.7,0.6-1.5,0.5-0.9,1.1s1.4,1,1.8,0.2C48,13.8,47.3,12.8,46.7,13.3z"/>
	<path fill="#5F4E34" d="M51.7,12.9c-0.9,0.3-1.6,0.8-1.4,1.4c0.2,0.7,0.3,1.6,1.2,0.9C52.4,14.5,52.5,12.6,51.7,12.9z"/>
	<path fill="#5F4E34" d="M56.4,13.8c-0.8,0.8-1.3,1.5-0.9,1.9c0.4,0.4,1.5,0.8,1.9-0.2C57.8,14.5,57.1,13.1,56.4,13.8z"/>
	<path fill="#372C1D" d="M61,14.2c-0.6,0.7-0.8,1.6-0.3,1.8c0.6,0.2,1.2,0.4,1.4-0.6C62.4,14.4,61.8,13.3,61,14.2z"/>
	<path fill="#372C1D" d="M65.4,15.2c-0.6,0.6-0.8,0.7-0.3,1s1.1,0.2,1.3-0.3C66.6,15.3,66.1,14.5,65.4,15.2z"/>
	<path fill="#372C1D" d="M70.1,20.2c-1,1-1.4,1.9-0.8,2.2c0.6,0.3,1.5,0.3,2-0.7C71.8,20.7,71.2,19.2,70.1,20.2z"/>
	<path fill="#372C1D" d="M76.7,20.6c-1.8-0.1-2.1,0-2.2,0.8c-0.1,0.8,0.7,2.3,2.2,1.3C78.2,21.6,77.1,20.6,76.7,20.6z"/>
	<path fill="#372C1D" d="M63.3,20.5c-0.5,0.7-1.9,0.9-1.1,1.4c0.8,0.5,2.2,1.2,2.8,0C65.7,20.8,63.8,19.9,63.3,20.5z"/>
	<path fill="#220F1E" d="M58.7,20.1c-0.8,0.7-1.7,0.5-1.7,1.2c0.1,0.7,1.5,1.6,2.3,0.6C60.1,20.9,59.4,19.5,58.7,20.1z"/>
	<path fill="#220F1E" d="M53.3,20.2c-0.8,0.3-1.1,0.8-1,1.5c0.1,0.7,1.3,0.8,1.8-0.2C54.5,20.4,54,19.9,53.3,20.2z"/>
	<path opacity="0.68" fill="#261322" d="M20.8,15.8c2.2-1.7,6.5-4.6,8.6-5c2.1-0.4,4.6,0.1,4.7,0.7c0.1,0.6-0.9,0.9-1.8,1.6
		c-0.8,0.8-1.1,2.7-3.7,3C26,16.4,20,16.3,20.8,15.8z"/>
	<path fill="#AD9DAA" d="M7.5,2.8c0.7,0.7,9.8,6.7,12.1,7.8c2.3,1,4.3,2.1,4.3,2.1l-4.7,2.7c0,0-3.3-3.7-5.3-5.2
		c-2-1.4-7.4-5-6.6-7.3C8.2,0.5,7.5,2.8,7.5,2.8z"/>
	<path fill="#AD9DAA" d="M39.6,26.4c1.4,1.5,13.1,9.2,18.4,10.5s17.6,2.4,17.6,2.4s-8.2-1.7-13.2-3.6c-5-1.9-16.8-9.6-18.7-10.3
		S39.6,26.4,39.6,26.4z"/>
	<path fill="#DDD5DC" d="M5.6,19.1c1.1,2-1.3,3.4,1.9,7.1c3.2,3.7,9,5.5,16,4.5s21.2,0.5,21.2,0.5s-15.1,0.6-19.1,0.7
		C21.6,32,1,32.1,0.5,24.1C0,16,5.6,19.1,5.6,19.1z"/>
	<g>
		<path fill="#010101" d="M107.3,0.6C107.3,0.6,107.2,0.6,107.3,0.6c-0.8-0.1-2.4-0.4-3.7-0.5c-0.7,0-1.3-0.1-1.7,0.3
			c-0.6,0.6-0.6,2-0.7,3.4c0,0.5-0.1,0.9-0.1,1.3c0,0.5-0.1,1-0.1,1.3c-1,4.6-2.8,6.8-7.1,7.6c-4.4,0.8-9.4,0.8-14.3,0.4
			c-3.5-0.3-7.1-0.7-10.4-1.1c-9.2-1.2-18.4-3-27.6-4.2c-0.8-0.1-1.6-0.2-2.4-0.3c-3.3-0.2-6.6-0.1-9.7,0.7c-4,1.1-7,3.6-10.6,5.6
			c-3.4,1.9-6.4,2.1-10.1,2.5c-3.2,0.3-6.3,1.6-8.1,4.5L0.5,22c-0.1,0.3-0.1,0.5-0.1,0.8c0,0,0,0,0,0c-0.2,0.3-0.3,0.7-0.4,1
			l0.5,0.2c0,0,0,0,0,0c0.2,0.9,0.7,1.6,1.3,2.4c3.6,4,10.4,5.3,16,5.7c1.3,0.1,2.5,0.1,3.6,0.2c9.1,0.2,18.1-0.3,27.2-0.1
			c0.2,0,0.3,0,0.5,0c-0.3-0.2-0.6-0.4-0.9-0.6c-9-0.2-17.9,0.3-26.8,0.1c-1.1,0-2.3-0.1-3.6-0.2C12.3,31.1,5.6,29.8,2.2,26
			c-0.9-1-1.3-1.8-1.3-3c1.6-3.1,4.7-4.4,8-4.8c3.7-0.4,6.8-0.5,10.3-2.6c3.6-2,6.6-4.5,10.5-5.5c3-0.8,6.3-1,9.5-0.7
			c0.8,0.1,1.6,0.1,2.4,0.2c9.2,1.2,18.3,3,27.6,4.2c3.3,0.4,6.8,0.9,10.4,1.1c4.9,0.4,9.9,0.4,14.4-0.4c4.5-0.8,6.6-3.4,7.5-8.1
			c0.1-0.3,0.1-0.8,0.1-1.4c0-0.4,0-0.9,0.1-1.3c0.1-1.4,0.3-2.8,0.5-3c0.1-0.1,0.6-0.2,1.3-0.1c1.1,0.1,2.5,0.4,3.4,0.5
			c-0.5,2-0.5,4.1-1.1,6c-0.7,2.4-1.3,4.8-1.8,7.2c-0.5,2.7-1.4,8.2-3.5,10.4c0-0.1,0-0.2,0-0.3l0-0.2l-0.2,0c-0.1,0-0.2,0-0.3,0
			c-0.4,0-0.7,0.1-0.9,0.3c-0.2,0.2-0.4,0.5-0.4,0.9c0,0.3,0,0.5,0.1,0.8l0.1,0.3l0.2-0.1c0.1,0,0.3-0.1,0.4-0.1
			c-6.4,3.8-13,3.6-20.3,3.8c-4.7,0.2-9.4,0.5-14.2,0.9c0,0,0.1,0,0.1,0.1c0.2,0.1,0.2,0.3,0.1,0.5c4.7-0.3,9.3-0.7,13.9-0.9
			c7.4-0.2,14.1-0.1,20.8-4l0.1,0l0-0.1c0.1-0.2,0.2-0.5,0.3-0.8c2.8-2.2,3.5-8.3,4.1-11.1c0.5-2.4,1.1-4.8,1.8-7.2
			c0.6-2.2,0.6-4.4,1.2-6.4l0.1-0.4L107.3,0.6z M99.9,25.3c-0.2,0.1-0.4,0.3-0.6,0.3c0-0.1,0-0.2,0-0.3c0.1-0.4,0.2-0.6,0.7-0.6h0
			c0,0.1,0,0.1,0,0.2C100,25.1,100,25.2,99.9,25.3z"/>
		<path fill="#010101" d="M34.6,11.7c-0.9-1.1-2-1.6-3.2-1.7c-3.6-0.2-8,3-10.4,5.1c0.1,0.1,0.2,0.3,0,0.5c-0.1,0.1-0.1,0.2-0.2,0.3
			l0,0.1c2.2-2,7-5.6,10.5-5.3c0.9,0.1,1.7,0.4,2.4,1.1c-2.1,0.5-3.3,3.2-5.1,3.9c-0.9,0.4-1.9,0.4-2.9,0.4
			c-0.7-0.1-1.4-0.2-2.1-0.2c-1-0.1-2,0-2.9,0.4c0,0,0,0.1-0.1,0.1c0.4,0,0.7,0.1,1.1,0.2c0.6-0.1,1.2-0.1,1.9-0.1
			c0.7,0.1,1.4,0.2,2.1,0.2c1.1,0.1,2.1,0.1,3.2-0.4c2.1-1,3.4-4,5.4-3.9l0.1,0c0.1-0.1,0.2-0.2,0.3-0.2L34.6,11.7z"/>
		<path fill="#010101" d="M37.2,12.9c-0.2,0-0.5,0-0.7,0c0,0-0.1,0-0.1,0.1c-0.2,0.1-0.4,0.3-0.6,0.5l0.4,0.4
			c0.3-0.4,0.5-0.5,0.7-0.5c0.2,0,0.4,0.3,0.4,0.7c0,0.3-0.1,0.6-0.5,0.9c-0.3,0.2-0.6,0.3-0.8,0.3c-0.5,0-0.9-0.5-0.9-0.9
			c0-0.2,0.1-0.5,0.4-0.7l-0.1-0.2c-0.3,0.2-0.5,0.5-0.8,0.7c0,0,0,0,0,0c0,0,0,0.1,0,0.1c0,0.8,0.6,1.5,1.4,1.6
			c0.4,0,0.8-0.1,1.2-0.4c0.5-0.4,0.7-0.9,0.7-1.3C37.9,13.7,37.7,13.1,37.2,12.9z"/>
		<path fill="#010101" d="M39.9,14.7c0-0.5,0.2-1,0.6-1.3l0,0l0,0c0.3-0.4,0.7-0.6,1.1-0.6l0,0c0.7,0.1,1.2,0.8,1.2,1.6l0,0
			c0,0.5-0.3,1-0.8,1.4l0,0c-0.4,0.3-0.7,0.4-1.1,0.4l0,0C40.2,16.2,39.9,15.4,39.9,14.7L39.9,14.7z M41.2,13.7
			c-0.5,0.1-0.7,0.6-0.8,1.1l0,0c0,0.5,0.2,0.9,0.5,0.9l0,0c0.2,0,0.4-0.1,0.7-0.3l0,0c0.4-0.3,0.6-0.7,0.6-1l0,0
			c0-0.5-0.3-0.9-0.7-1l0,0c-0.1,0-0.3,0-0.4,0.1l0,0L41.2,13.7L41.2,13.7z"/>
		<path fill="#010101" d="M48.2,13.2l0-0.3H48c-0.5,0-1.1,0.1-1.6,0.4l0.3,0.5c0.3-0.2,0.7-0.3,1.1-0.3c-0.1,0.9-0.7,1.1-1.2,1.1
			c-0.4,0-0.7-0.3-0.7-0.5c-0.1,0.2-0.2,0.4-0.2,0.7c0,0,0,0.1,0,0.1c0.2,0.2,0.5,0.3,0.8,0.3c0.8,0.1,1.7-0.5,1.8-1.7
			C48.2,13.4,48.2,13.3,48.2,13.2z"/>
		<path fill="#010101" d="M51.8,12.6c-0.5,0-1.1,0.3-1.5,1c0,0,0,0-0.1,0l-0.2,0l0,0.2c0,0.2-0.1,0.3-0.1,0.5c0,0.4,0.1,0.7,0.2,1
			c0.2,0.2,0.4,0.4,0.7,0.4c0,0,0,0,0,0c0.5,0,1.1-0.3,1.5-0.9c0.2-0.3,0.3-0.7,0.3-1C52.8,13.1,52.4,12.6,51.8,12.6z M52,14.4
			c-0.3,0.4-0.7,0.6-1,0.6c-0.2,0.1-0.3,0-0.4-0.2c-0.3-0.6,0-1,0.4-1.2c0.3-0.3,0.6-0.5,0.8-0.4c0.3,0,0.5,0.2,0.5,0.5
			C52.2,13.9,52.2,14.1,52,14.4z"/>
		<path fill="#010101" d="M57,13.3c-0.3,0-0.7,0.1-1.1,0.5l0.3,0.4c0.1,0,0.2-0.1,0.3-0.1c0.2-0.1,0.4-0.2,0.5-0.2
			c0.3,0,0.4,0.2,0.4,0.6c0,0.3-0.2,0.6-0.6,0.9c-0.3,0.2-0.6,0.3-0.8,0.3c-0.3,0-0.4-0.2-0.4-0.3c0,0,0-0.1,0-0.1
			c-0.1-0.3,0-0.7,0.2-0.9l-0.1-0.1h0c-0.4,0.3-0.7,0.7-0.7,1.1c0,0.6,0.4,0.9,0.9,1c0.3,0,0.7-0.1,1.1-0.4c0.5-0.4,0.8-0.9,0.8-1.4
			C58,13.9,57.6,13.4,57,13.3z"/>
		<path fill="#010101" d="M61.7,13.9c-0.1,0.1-0.2,0.3-0.3,0.3c-0.1,0-0.2,0-0.3,0c-0.1,0-0.1,0.1-0.2,0.1c0,0,0,0,0,0
			c-0.4,0.2-0.6,0.7-0.5,1.3c0.1,0.4,0.2,0.8,0.5,1c0.8-0.1,1.6-0.7,1.6-1.5c0-0.4-0.1-0.8-0.4-1.1l-0.1-0.1L61.7,13.9
			C61.7,13.9,61.7,13.9,61.7,13.9z M61.9,15c0,0.4-0.5,0.9-1.1,1c-0.1-0.3-0.1-0.5-0.1-0.7c0-0.1,0-0.2,0-0.2c0,0,0.1,0.1,0.1,0.1
			l0.1-0.4l0,0l0.1,0.2c0.2-0.1,0.4-0.2,0.7-0.3C61.8,14.7,61.9,14.9,61.9,15z"/>
		<path fill="#010101" d="M65.3,17c-0.2,0-0.4-0.1-0.5-0.1l0,0l-0.2-0.1l0-0.2c0-0.2,0-0.3,0-0.4l0,0c0-0.5,0.3-0.7,0.4-0.8l0,0
			l0.1,0.1l0.2,0.4c-0.1,0-0.1,0-0.1,0l0,0c0,0,0,0,0,0l0,0l0,0c0,0,0,0.1-0.1,0.3l0,0c0,0,0,0.1,0,0.1l0,0c0.1,0,0.2,0,0.2,0l0,0
			c0.5,0,0.9-0.2,1.1-0.7l0,0c-0.2-0.2-0.3-0.3-0.4-0.3l0,0c-0.2,0-0.4,0.1-0.8,0.3l0,0L65,15.2c0.4-0.2,0.7-0.4,1.1-0.4l0,0
			c0.3,0,0.7,0.3,0.9,0.6l0,0l0.1,0.1L67,15.7C66.7,16.5,66.1,17,65.3,17L65.3,17C65.3,17,65.3,17,65.3,17L65.3,17z"/>
		<path fill="#010101" d="M10.9,19.9l-0.1-0.1l-0.1,0c-0.1,0-0.1,0-0.2,0c-0.4,0-0.7,0.2-0.9,0.4c0,0.2,0,0.4-0.2,0.4
			c0,0.1,0,0.1-0.1,0.2l-0.1-0.1c-0.4,0.2-0.4,0.9-0.3,1.5c0.2,0.1,0.4,0.2,0.6,0.2c0.6,0,1.5-0.4,1.6-1.4
			C11.2,20.7,11.1,20.3,10.9,19.9z M9.7,21.8c-0.3,0-0.5-0.2-0.5-0.4c0-0.1,0.1-0.3,0.2-0.5c0,0.1,0,0.1-0.1,0.2l0.5,0.2
			c0.2-0.7,0.3-0.9,0.7-0.9c0.1,0.3,0.1,0.5,0.1,0.6C10.6,21.5,10.1,21.8,9.7,21.8z"/>
		<path fill="#010101" d="M12.7,21.4c0-0.2,0-0.3,0.1-0.5l0,0l-0.2-0.2c0.4-0.7,1-1,1.6-1l0,0c0.6,0,1.1,0.5,1.1,1.3l0,0
			c0,0.3-0.1,0.6-0.3,0.9l0,0c-0.3,0.6-0.8,1-1.2,0.9l0,0C13.1,22.8,12.7,22.1,12.7,21.4L12.7,21.4z M13.6,20.7
			c-0.3,0.2-0.4,0.5-0.4,0.7l0,0c0,0.4,0.2,0.8,0.5,0.8l0,0c0.2,0,0.4-0.1,0.7-0.6l0,0c0.1-0.3,0.2-0.5,0.2-0.6l0,0
			c0-0.4-0.2-0.6-0.6-0.6l0,0c-0.2,0-0.4,0-0.6,0.2l0,0L13.6,20.7L13.6,20.7z"/>
		<path fill="#010101" d="M18.5,22.1c-0.6,0-1.1-0.5-1.1-1.2l0,0c0-0.5,0.3-0.9,0.9-1.1l0,0h0l0.1,0.2c0.3-0.4,0.8-0.6,1.2-0.6l0,0
			c0.4,0,0.9,0.4,0.9,1l0,0c0,0.4-0.3,0.8-0.7,1.2l0,0C19.3,22,18.9,22.1,18.5,22.1L18.5,22.1C18.5,22.1,18.5,22.1,18.5,22.1
			L18.5,22.1z M17.9,21c0,0.2,0.2,0.5,0.6,0.5l0,0c0.2,0,0.6-0.1,0.9-0.4l0,0c0.4-0.4,0.5-0.6,0.5-0.8l0,0c0-0.2-0.1-0.3-0.4-0.3
			l0,0c-0.3,0-0.7,0.2-0.9,0.6l0,0l-0.3-0.2C18,20.7,18,20.9,17.9,21L17.9,21z"/>
		<path fill="#010101" d="M24.4,19.8c0,0,0.1,0.1,0.1,0.2c-0.1,0-0.1,0-0.2,0c-0.3,0-0.6,0-0.9,0.2c0.1-0.1,0.1-0.1,0.2-0.2
			c0,0-0.1,0-0.1,0c-0.1,0-0.2,0-0.2,0c0,0,0,0,0,0l0.2,0.2c-0.5,0.3-0.8,0.8-0.8,1.3c0,0.5,0.3,1.1,0.8,1.1c0.2,0,0.4,0,0.6-0.1
			c0.8-0.3,1.1-1,1.2-1.7c0-0.3,0-0.6-0.1-0.9C24.9,19.9,24.7,19.8,24.4,19.8z M23.9,21.9c-0.2,0.1-0.3,0.1-0.4,0.1
			c-0.3,0-0.3-0.2-0.3-0.5c0-0.4,0.4-1,1.2-0.9c0,0,0.1,0,0.2,0l0.1-0.5c0.1,0.2,0.1,0.4,0.1,0.7C24.7,21.2,24.4,21.7,23.9,21.9z"/>
		<path fill="#010101" d="M29.3,22.4c-0.2,0-0.4-0.1-0.7-0.1l0,0l-0.2,0l0-0.2c0-0.2-0.1-0.5,0-0.7l0,0c0-0.5,0.3-1,0.6-1.3l0,0l0,0
			c0.5-0.7,0.9-1,1.4-1l0,0c0.7,0.1,1,0.9,0.9,1.6l0,0c0,0.5-0.2,0.9-0.5,1.3l0,0C30.5,22.2,30,22.5,29.3,22.4L29.3,22.4
			C29.3,22.4,29.3,22.4,29.3,22.4L29.3,22.4z M29.4,21.8c1,0.1,1.4-0.6,1.4-1.2l0,0c0-0.6-0.2-1-0.4-1l0,0c-0.1,0-0.2,0-0.3,0.1l0,0
			c0,0,0,0,0,0l0,0c0,0,0,0,0,0l0,0l-0.1,0.6l0,0c-0.7,0-1,0.4-1.1,1.1l0,0c0,0.1,0,0.2,0,0.4l0,0C29.1,21.8,29.2,21.8,29.4,21.8
			L29.4,21.8z"/>
		<path fill="#010101" d="M34.1,20.9L34,20.8l0.1-0.1c0.3-0.6,0.8-0.5,1-0.6l0,0l0.1,0.6c-0.4,0.1-0.5,0-0.6,0.2l0,0
			c0.2,0.3,0.4,0.5,0.7,0.5l0,0c0.6,0.1,1.4-0.6,1.7-1.3l0,0c-0.2-0.2-0.3-0.3-0.5-0.3l0,0c-0.2,0-0.4,0.1-0.7,0.3l0,0l-0.3-0.5
			c0.3-0.2,0.7-0.4,1-0.3l0,0c0.3,0,0.7,0.2,0.9,0.6l0,0l0.1,0.1l0,0.2c-0.3,1.1-1.3,2-2.3,1.9l0,0c0,0,0,0,0,0l0,0
			C34.8,21.9,34.3,21.5,34.1,20.9L34.1,20.9z"/>
		<path fill="#010101" d="M40.8,23.2c-0.7-0.1-1.3-0.7-1.3-1.4l0,0c0-0.4,0.3-0.8,0.8-1l0,0l-0.2-0.2c0.4-0.5,0.9-0.8,1.3-0.8l0,0
			c0.7,0.1,1.2,0.8,1.2,1.6l0,0c0,0.4-0.2,0.8-0.4,1.1l0,0C41.7,23,41.2,23.2,40.8,23.2L40.8,23.2C40.8,23.2,40.8,23.2,40.8,23.2
			L40.8,23.2z M40.5,21.3c-0.4,0.1-0.5,0.3-0.5,0.5l0,0c0,0.3,0.3,0.8,0.8,0.8l0,0c0.3,0,0.6-0.1,0.9-0.5l0,0
			c0.2-0.3,0.3-0.5,0.3-0.8l0,0c0-0.5-0.3-0.9-0.7-0.9l0,0c-0.2,0-0.5,0.1-0.8,0.5l0,0l0,0L40.5,21.3L40.5,21.3z"/>
		<path fill="#010101" d="M44.6,21.1c0-0.5,0.4-1.1,1.1-1.2l0,0c0.4-0.3,0.8-0.5,1.2-0.4l0,0c0.6,0,1,0.6,1,1.3l0,0
			c0,0.5-0.3,1.1-0.9,1.5l0,0c-0.4,0.3-0.8,0.4-1.1,0.4l0,0C45.1,22.6,44.6,21.8,44.6,21.1L44.6,21.1z M45.9,20.5
			c-0.5,0.1-0.7,0.4-0.7,0.7l0,0c0,0.4,0.3,0.8,0.7,0.9l0,0c0.2,0,0.5,0,0.8-0.3l0,0c0.5-0.3,0.6-0.7,0.7-1l0,0
			c0-0.4-0.2-0.6-0.5-0.7l0,0c-0.2,0-0.5,0.1-0.9,0.4l0,0l-0.2-0.2L45.9,20.5L45.9,20.5z"/>
		<path fill="#010101" d="M54.2,20.1c-0.4-0.2-0.9-0.2-1.4,0l0.1,0.3c0,0,0,0-0.1,0c-0.7,0-1,0.7-1,1.3c0,0.5,0.2,1.1,0.8,1.1
			c0.3,0,0.7-0.1,1.2-0.5c0.5-0.4,0.8-0.8,0.9-1.3C54.7,20.6,54.5,20.3,54.2,20.1z M53.5,21.8c-0.4,0.3-0.7,0.4-0.9,0.4
			c-0.2,0-0.3-0.1-0.3-0.5c0-0.4,0.3-0.7,0.5-0.7c0,0,0.1,0,0.1,0l0.2-0.5c0.1,0,0.3,0,0.4,0c0.4,0,0.6,0.3,0.6,0.5
			C54.1,21.1,53.9,21.4,53.5,21.8z"/>
		<path fill="#010101" d="M58,22.6c-0.8-0.1-1.2-0.7-1.2-1.2l0,0c0-0.6,0.5-1.1,1.2-1l0,0c0,0,0.1,0,0.1,0l0,0h0l-0.1,0.6
			c0,0-0.1,0-0.1,0l0,0c-0.4,0-0.6,0.2-0.6,0.5l0,0c0,0.2,0.1,0.5,0.7,0.6l0,0c0,0,0,0,0.1,0l0,0c0.4,0,0.8-0.2,1.1-0.5l0,0
			c0.3-0.3,0.5-0.8,0.5-1.1l0,0c0,0,0,0-0.1,0l0,0c-0.4,0-0.9,0.1-1.2,0.3l0,0l-0.3-0.5c0.5-0.3,1-0.4,1.5-0.4l0,0
			c0.1,0,0.2,0,0.4,0.1l0,0l0.2,0l0,0.2c0,0.1,0,0.2,0,0.3l0,0c-0.1,1.2-1.1,2.3-2.2,2.3l0,0C58.1,22.6,58.1,22.6,58,22.6L58,22.6z"
			/>
		<path fill="#010101" d="M62,21.8c0-0.5,0.4-0.9,1-1l0,0l0.1,0.6c-0.5,0.2-0.6,0.4-0.6,0.5l0,0c0,0.2,0.3,0.6,0.9,0.7l0,0
			c0.3,0,0.6,0,0.9-0.2l0,0c0.6-0.4,0.8-0.8,0.9-1l0,0c0-0.2-0.1-0.4-0.5-0.5l0,0c-0.3,0-0.6,0.1-1.1,0.4l0,0l-0.3-0.5
			c0.5-0.3,1-0.5,1.4-0.4l0,0c0.6,0,1,0.5,1,1.1l0,0c0,0.6-0.4,1.1-1.1,1.5l0,0c-0.4,0.3-0.8,0.3-1.2,0.3l0,0
			C62.6,23,62,22.5,62,21.8L62,21.8z"/>
		<path fill="#010101" d="M68.7,21.4c0-0.6,0.5-1.3,1.2-1.4l0,0l0,0.1c0.5-0.4,0.9-0.6,1.3-0.6l0,0c0.6,0,1,0.7,0.9,1.3l0,0
			c0,0.6-0.4,1.3-1.1,1.8l0,0c-0.4,0.2-0.8,0.4-1.1,0.3l0,0C69,22.9,68.6,22.1,68.7,21.4L68.7,21.4z M69.2,21.4
			c0,0.4,0.2,0.9,0.7,0.9l0,0c0.2,0,0.5,0,0.8-0.3l0,0c0.6-0.3,0.8-0.9,0.8-1.3l0,0c0-0.4-0.1-0.7-0.4-0.7l0,0
			c-0.2,0-0.6,0.1-1.1,0.6l0,0l-0.1-0.2C69.4,20.7,69.2,21.1,69.2,21.4L69.2,21.4z"/>
		<path fill="#010101" d="M76.2,20.4l0.2,0.5c0.2-0.1,0.4-0.1,0.5-0.1c0.3,0,0.4,0.2,0.4,0.6c0,0.5-0.4,1.2-1.2,1.4
			c-0.2,0-0.4,0.1-0.5,0c-0.6-0.1-0.8-0.4-0.8-0.7c0-0.3,0.2-0.5,0.5-0.5l0-0.6c-0.6,0-1.1,0.5-1.1,1c0,0.6,0.4,1.3,1.3,1.4
			c0.2,0,0.4,0,0.7-0.1c1-0.2,1.6-1.1,1.6-1.9c0-0.1,0-0.2,0-0.3C77.4,20.6,76.8,20.5,76.2,20.4z"/>
		<path fill="#010101" d="M57.1,36.6c-6.1-2.2-12.7-5.3-17.8-9.7l0,0h0l0.3-0.5c5,4.4,11.6,7.4,17.6,9.6l0,0c3.5,1.2,6.2,2.1,10,2.4
			l0,0c2.7,0.2,5.7,0.1,8.4,0.3l0,0c0.5,0,1,0.1,1.4,0.1l0,0c-0.1-0.4-0.7-1.2-1.7-1.9l0,0c-1.1-0.9-2.7-1.8-4.4-2.7l0,0
			c-3.3-1.8-6.9-3.4-8-4.1l0,0c-4.5-2.7-8.4-4.7-13-5l0,0c-1.3-0.1-2.7-0.1-4.2,0.1l0,0l-0.1-0.6c1.5-0.2,2.9-0.2,4.3-0.1l0,0
			c4.7,0.4,8.7,2.3,13.3,5.1l0,0c1.6,0.9,8.9,4.1,12.4,6.8l0,0c1.2,0.9,2,1.7,2,2.7l0,0c0,0.1,0,0.1,0,0.2l0,0l-0.1,0.3l-0.2,0
			c-0.6-0.1-1.1-0.1-1.7-0.2l0,0c-2.7-0.2-5.7-0.1-8.4-0.3l0,0C63.3,38.7,60.5,37.8,57.1,36.6L57.1,36.6z"/>
		<path fill="#010101" d="M12.6,9.2c-1.4-1.1-6-3.6-5.9-6.5l0,0c0-0.2,0-0.3,0.1-0.5l0,0l0-0.1l0.1-0.1c0.8-0.5,1.8-0.6,2.8-0.6l0,0
			c2.9,0.2,6.5,2,8.5,2.8l0,0c2.4,1,7.4,4.7,10,4.9l0,0c0.3,0,0.6,0,0.8-0.1l0,0l0.2,0.6c-0.3,0.1-0.6,0.1-1,0.1l0,0
			c-2.9-0.2-7.9-4-10.2-4.9l0,0C16,4,12.4,2.3,9.7,2.1l0,0c-1-0.1-1.8,0-2.4,0.4l0,0c0,0.1,0,0.2,0,0.2l0,0c-0.2,2.1,4.1,4.9,5.7,6
			l0,0c2.3,1.7,4.1,4.5,6.4,5.9l0,0L19,15.1C16.6,13.6,14.8,10.9,12.6,9.2L12.6,9.2z"/>
		<path fill="#010101" d="M13.2,38.9c-0.2-0.4-0.3-0.7-0.2-1.1l0,0c0.1-1.1,0.9-1.9,1.8-1.8l0,0c0.1,0,0.1,0,0.2,0l0,0
			c0.1-0.2,0.3-0.3,0.5-0.5l0,0c0.2-1.3,0.2-3,0.7-4.1l0,0v0l0.5,0.3c-0.4,0.8-0.4,2.1-0.6,3.4l0,0c0.5-0.2,1-0.3,1.5-0.3l0,0
			c1,0.1,2,0.6,1.9,1.8l0,0c0,0.5-0.3,1.1-0.8,1.7l0,0c-0.7,0.9-2.4,1.6-3.8,1.5l0,0c0,0,0,0,0,0l0,0C14.2,39.9,13.5,39.6,13.2,38.9
			L13.2,38.9z M13.5,37.9c0,0.2,0,0.5,0.2,0.7l0,0c0.3,0.5,0.7,0.7,1.3,0.8l0,0c1.2,0.1,2.8-0.7,3.4-1.4l0,0c0.5-0.5,0.6-1,0.6-1.3
			l0,0c0-0.6-0.5-1.1-1.4-1.2l0,0c-0.6,0-1.1,0.1-1.6,0.4l0,0c-0.1,0.3-0.1,0.6-0.2,0.9l0,0l-0.2,0.5l-0.3-0.4
			c0-0.1-0.1-0.1-0.1-0.1l0,0C15,37,15,37.3,14.9,37.5l0,0c0,0.1,0,0.2,0,0.4l0,0L14.4,38c0-0.2,0-0.3,0-0.5l0,0
			c0-0.3,0.1-0.6,0.2-0.9l0,0C14.1,36.6,13.5,37.2,13.5,37.9L13.5,37.9z"/>
		<path fill="#010101" d="M48.8,39.5c-0.1-0.3-0.2-0.6-0.2-0.9l0,0c0.1-0.8,0.7-1.2,1.3-1.2l0,0c0,0,0,0,0.1,0l0,0
			c0.1,0,0.1-0.1,0.2-0.1l0,0c0-0.2,0-0.4,0-0.7l0,0c0.1-0.9,0.2-1.8,0.2-2.5l0,0l0.5,0c0,0.8-0.2,1.6-0.2,2.5l0,0
			c0,0.1,0,0.2,0,0.3l0,0c0.2-0.1,0.5-0.1,0.7-0.1l0,0c0.6,0,1.2,0.4,1.5,1.2l0,0l0.1,0.1L53,38.3c-0.4,0.7-1.3,1.6-2.2,1.9l0,0l0,0
			l0,0c-0.3,0.1-0.6,0.2-0.8,0.1l0,0c0,0,0,0,0,0l0,0C49.5,40.4,49,40.1,48.8,39.5L48.8,39.5z M49.1,38.7c0,0.1,0,0.3,0.1,0.6l0,0
			c0.2,0.4,0.4,0.5,0.7,0.6l0,0c0.2,0,0.4,0,0.6-0.1l0,0l-0.1-0.2c-0.2-0.4-0.3-0.9-0.3-1.4l0,0c0,0,0,0,0,0l0,0
			c-0.1,0.1-0.1,0.1-0.2,0.2l0,0l-0.4-0.3C49.4,38.1,49.2,38.3,49.1,38.7L49.1,38.7z M50.8,37.8c0.2,0.3,0.3,0.7,0.3,1.1l0,0
			c0,0.2,0,0.3-0.1,0.5l0,0l0,0c0.6-0.3,1.2-0.9,1.4-1.3l0,0c-0.3-0.5-0.6-0.7-1-0.7l0,0c-0.2,0-0.5,0-0.7,0.2l0,0
			C50.7,37.7,50.7,37.7,50.8,37.8L50.8,37.8C50.7,37.8,50.7,37.8,50.8,37.8L50.8,37.8z"/>
		<path fill="#010101" d="M15,8.6c-2.3-1.4-7.2-3.9-8.2-6.4l0,0l0,0l0.5-0.3c0.8,2.1,5.7,4.8,8,6.1l0,0c2.2,1.4,5.3,2.9,7.2,3.7l0,0
			l-0.2,0.6C20.4,11.5,17.3,10,15,8.6L15,8.6z"/>
		<path fill="#010101" d="M56.6,33.8c-2.4-1-4.6-2.4-6.8-3.7l0,0c-2.1-1.2-5.2-2.1-6.8-4.4l0,0h0l0.4-0.4c1.5,2.1,4.4,3,6.7,4.2l0,0
			c2.3,1.2,4.4,2.7,6.8,3.6l0,0c3.5,1.5,8.2,4.2,11.9,4.5l0,0c0.5,0,0.9,0,1.3,0l0,0l0,0.6c-0.4,0.1-0.9,0.1-1.4,0l0,0
			C64.8,38,60.1,35.2,56.6,33.8L56.6,33.8z"/>
		<path fill="#010101" d="M107.1,20.7c-0.7-0.3-2.1-0.6-3.2-1l0,0c-1.1-0.4-2.2-1-2.1-2.2l0,0c0-0.5,0.3-1,0.8-1.6l0,0l0.4,0.4
			c-0.5,0.5-0.7,1-0.7,1.2l0,0c-0.1,0.6,0.7,1.2,1.8,1.6l0,0c1.1,0.4,2.4,0.7,3.2,1l0,0c1.8,0.7,4.4,1.9,6.7,2.1l0,0
			c0.6,0,1.1,0,1.6-0.1l0,0c-2-3.8-9.3-4.6-12.9-6.4l0,0h0l0.2-0.5c3.5,1.9,11.2,2.5,13.3,7l0,0l0.1,0.3l-0.3,0.1
			c-0.7,0.2-1.4,0.3-2.2,0.2l0,0C111.5,22.6,108.8,21.4,107.1,20.7L107.1,20.7z"/>
		<path fill="#010101" d="M85.9,8.1l-0.2-0.3L86,7.7c0.5-0.2,1.2-0.3,2.1-0.2l0,0c3.7,0.3,9.8,2.6,11.1,5.1l0,0l-0.5,0.3
			c-1-2-7.1-4.5-10.6-4.8l0,0c-0.6,0-1.1,0-1.5,0.1l0,0c1.7,2.6,5.7,4.1,8.8,4.3l0,0c0.4,0,0.8,0,1.2,0l0,0l0,0.6
			c-0.4,0-0.8,0-1.3,0l0,0C92,12.7,87.6,11.3,85.9,8.1L85.9,8.1z"/>
	</g>
	<path fill="#7E1C59" d="M101.7,2.5c0.4,0,5.1,0.8,5.1,0.8l-1,3.8c0,0-3.9-1.6-4-1.3C101.6,6.1,101.7,2.5,101.7,2.5z"/>
	<path fill="#941937" d="M92.4,8.6c0,0-1.4,1.9-1.6,2.4c-0.2,0.5-2.4-1.1-2.4-1.1L90,7.9L92.4,8.6z"/>
	<polygon fill="#941937" points="111.2,18.6 110.3,21.2 113,21.7 114,19.7 	"/>
	<path fill="#941937" d="M57.2,36c0,0,7-4.3,13.7-1.8c0,0-3.7-3-8.1-1.7c-4.4,1.2-7.7,3.7-7.7,3.7l1.9,0.4L57.2,36z"/>
	<path fill="#941937" d="M54.2,34.8c0,0,5.6-4.9,11.5-3.8l-2.5-1.4c0,0-5.1-0.9-10.8,4.9L54.2,34.8z"/>
	<path fill="#941937" d="M10.8,7.1c0,0,4.1-3.5,8.1-2.2l1.2,1c0,0-6.5-1.3-8.6,2.2L10.8,7.1z"/>
	<path fill="#941937" d="M12.6,9.2c0,0,2.4-3.9,8.8-2.6L23,7.2c0,0-7-1.5-9.7,2.3L12.6,9.2z"/>
	<path fill="#941937" d="M3.8,19.5L3,27C3,27,1,25.2,1,23C1,20.9,3.8,19.5,3.8,19.5z"/>
</g>
</svg>

<svg version="1.1" xmlns="http://www.w3.org/2000/svg" xmlns:xlink="http://www.w3.org/1999/xlink" x="2" y="204"
	 width="88" height="88"  viewBox="0 0 142.7 51.8" enable-background="new 0 0 142.7 51.8" xml:space="preserve">
<g>
	<rect x="72.6" y="17.5" fill="#010101" width="0" height="0"/>
	<path fill="#010101" d="M42.3,17.2C41.2,17.7,40,18,39,18c-2.1-0.1-3.5-1.1-3.5-3.2c0-0.6,0.1-1.2,0.4-1.9c0,0,0.1,0,0.2,0
		c0.1,0,0.1,0,0.2,0l0-0.2c-0.2-0.1-0.4-0.2-0.6-0.4c0,0-0.1,0-0.1,0l-0.2,0l-0.1,0.1c-0.3,0.9-0.5,1.6-0.5,2.3
		c0,1.2,0.4,2.2,1.2,2.9c0.8,0.7,1.8,1,3,1c1.1,0,2.4-0.3,3.6-0.9L42.3,17.2z"/>
	<path fill="#010101" d="M46.1,22.6c-0.5-0.7-1.1-2-1.1-3.1l0,0c0-0.6,0.2-1.3,0.8-1.6l0,0l0.3,0.6c-0.3,0.2-0.5,0.5-0.5,1.1l0,0
		c0,0.9,0.5,2.2,0.9,2.7l0,0c0.7,0.9,2,1.4,3.4,1.4l0,0c1.2,0,2.4-0.3,3.3-0.8l0,0l0.3,0.6c-1,0.6-2.3,0.9-3.6,0.9l0,0
		C48.5,24.2,47,23.8,46.1,22.6L46.1,22.6z"/>
	<path fill="#010101" d="M142,46.7c-1.9-2-5.2-3.1-7.4-4.4c-3.2-1.8-6.2-3.7-9.5-5.2c-7.1-3.3-14.4-7.1-22.1-9.2
		c-1.2-0.3-5-1-8.6-1.9c-1.8-0.4-3.5-0.9-4.8-1.4c-1.3-0.5-2.1-1.1-2.1-1.3l-0.7,0.1h0c0.2,0.8,1.2,1.2,2.5,1.8
		c4,1.5,11.8,2.9,13.5,3.4c7.6,2.1,14.8,5.9,22,9.2c3.3,1.5,6.3,3.4,9.5,5.2c2.3,1.3,5.5,2.4,7.2,4.2c0.5,0.5,0.6,0.8,0.6,1.1
		c0,0.3-0.4,0.7-1.5,0.9c-1,0.2-2.5,0.3-3.9,0.3c-3.2,0-6.8-0.5-7.6-0.6c-4.2-0.8-8.6-1.5-13-2.3c-0.4-0.1-0.7-0.1-1.1-0.2
		c-3.9-0.8-7.8-1.8-11.5-3.1c-4.6-1.6-9.2-3.4-13.9-4.8c-4.5-1.4-9.4-2.2-13.7-3.7l-0.2,0.6c4.4,1.5,9.3,2.3,13.8,3.7
		c4.7,1.4,9.3,3.2,13.9,4.8c8.1,2.9,17.2,4.1,25.7,5.7c0.9,0.2,4.4,0.6,7.7,0.7c1.5,0,3-0.1,4.1-0.3c1.1-0.2,2-0.7,2-1.6
		C142.7,47.7,142.5,47.2,142,46.7z"/>
	<path fill="#010101" d="M87,45.2c-1.9-0.9-3.7-2.7-4.2-4.9l0,0c-0.1-0.4-0.2-0.9-0.1-1.4l0,0c0-0.4,0.1-0.8,0.2-1.2l0,0
		c0.1-0.4,0.5-0.7,1-0.7l0,0c0.3,0,0.6,0.1,0.9,0.3l0,0l-0.3,0.6c-0.3-0.1-0.4-0.2-0.6-0.2l0,0c-0.2,0-0.2,0.1-0.4,0.3l0,0
		c-0.1,0.2-0.2,0.6-0.2,0.9l0,0c0,0.5,0.1,1,0.1,1.3l0,0c0.4,1.9,2.1,3.6,3.8,4.4l0,0c1.3,0.6,3.6,1.2,5.8,1.2l0,0
		c3.2,0,6-0.9,6.1-4l0,0c0-0.1,0-0.2,0-0.2l0,0l0.7,0c0,0.1,0,0.2,0,0.3l0,0c0,1.8-0.9,3-2.2,3.7l0,0c-1.3,0.7-2.9,1-4.6,0.9l0,0
		C90.8,46.4,88.5,45.9,87,45.2L87,45.2z"/>
	<path fill="#010101" d="M88.2,42.8c-0.7-0.6-1.5-2.3-1.6-3.5l0,0c0-0.2,0-0.5,0.2-0.7l0,0c0.1-0.2,0.4-0.3,0.7-0.3l0,0
		c0,0,0.1,0,0.1,0l0,0l-0.1,0.7c0,0,0,0,0,0l0,0c-0.1,0-0.1,0-0.2,0.4l0,0c0,0.8,0.9,2.7,1.3,3l0,0c0.5,0.4,1.1,0.6,1.6,0.6l0,0
		c1.2,0,2.5-0.7,3.6-1.6l0,0l0.4,0.5c-1.1,0.8-2.5,1.7-4,1.7l0,0c0,0,0,0,0,0l0,0C89.5,43.4,88.8,43.2,88.2,42.8L88.2,42.8z"/>
	<path fill="#010101" d="M115.5,46.3C115.5,46.3,115.5,46.4,115.5,46.3c0,1.7-1,2.9-2.4,3.7c-1.4,0.8-3.4,1.2-5.2,1.1
		c-1.3,0-2.6-0.2-3.5-0.7c-1.9-0.9-3-2.1-3.3-4.3c-0.1-0.3-0.1-0.8-0.1-1.3c0-0.5,0.1-0.9,0.2-1.2c0.1-0.3,0.2-0.4,0.3-0.4l0-0.7h0
		c-0.5,0-0.8,0.4-0.9,0.8c-0.1,0.4-0.2,0.9-0.2,1.4c0,0.5,0,1.1,0.1,1.4c0.3,2.3,1.6,3.9,3.7,4.8c1,0.5,2.4,0.7,3.8,0.7
		c3.7,0,8.1-1.5,8.3-5.4C116,46.4,115.8,46.4,115.5,46.3z"/>
	<path fill="#010101" d="M113,45.6c-1.4,1.3-2.9,2.2-4.5,2.2c-0.7,0-1.4-0.2-2.1-0.6c-0.8-0.4-2.1-1.9-2-2.8c0-0.3,0.1-0.5,0.4-0.7
		l-0.4-0.6c-0.5,0.3-0.7,0.8-0.7,1.2c0,1.3,1.3,2.8,2.3,3.4c0.8,0.5,1.7,0.7,2.5,0.7h0c1.9,0,3.6-1.1,5.1-2.4l-0.4-0.4
		C113.1,45.6,113.1,45.6,113,45.6z"/>
	<path fill="#010101" d="M104.6,7.9c-0.7,0-1.4,0-2,0.2c-0.1-0.1-0.1-0.2-0.2-0.2l-0.5,0.4c0,0,0,0,0,0c0,0-0.1,0-0.1,0
		c0.1,0.1,0.2,0.1,0.2,0.3c0.1,0.1,0.1,0.2,0.1,0.3c0.1,0,0.1-0.1,0.2-0.1c1.3,1.6,2.6,3.2,5,3.3l0.1,0c2.7,0,5.3-0.6,7.9-0.8
		l0.1-0.6C112.8,9.8,108.3,7.9,104.6,7.9z M107.3,11.4C107.3,11.4,107.3,11.4,107.3,11.4C107.3,11.4,107.3,11.4,107.3,11.4
		c-2,0-3.1-1.2-4.3-2.8c0.5-0.1,1-0.1,1.5-0.1c3,0,6.6,1.3,9.1,2.2C111.5,11,109.4,11.4,107.3,11.4z"/>
	<path fill="#010101" d="M97.5,12.9c0-0.2,0-0.4,0.1-0.6l0,0c0,0,0,0-0.1,0l0,0l0.3-0.6c0.7,0.3,2.1,0.9,2.2,2l0,0
		c0,0.3-0.2,0.6-0.4,0.8l0,0C99.3,14.8,99,15,98.7,15l0,0C97.7,14.8,97.5,13.7,97.5,12.9L97.5,12.9z M98.2,13c0,0.3,0.1,0.7,0.2,1
		l0,0c0.1,0.3,0.3,0.4,0.3,0.4l0,0c0.1,0,0.2,0,0.4-0.2l0,0c0.2-0.1,0.2-0.2,0.2-0.3l0,0c0.1-0.2-0.5-0.7-1.1-1.1l0,0
		C98.2,12.8,98.2,12.9,98.2,13L98.2,13z"/>
	<path fill="#010101" d="M92.4,16.5c-0.2-0.2-0.2-0.5-0.2-0.8l0,0c0-0.6,0.2-1.2,0.6-1.7l0,0l0-0.1c0,0,0.1,0,0.1-0.1l0,0
		c0.2-0.2,0.3-0.3,0.5-0.4l0,0l0.1,0.3c0.9,0.1,1.5,0.8,1.5,1.6l0,0c0,0.6-0.4,1.2-1.2,1.4l0,0c-0.2,0.1-0.4,0.1-0.5,0.1l0,0
		c0,0,0,0,0,0l0,0C92.9,16.9,92.6,16.7,92.4,16.5L92.4,16.5z M92.9,15.7c0,0.4,0.1,0.5,0.4,0.6l0,0c0.1,0,0.2,0,0.3,0l0,0
		c0.5-0.2,0.7-0.5,0.7-0.8l0,0c0-0.5-0.4-0.9-0.9-0.9l0,0c0,0-0.1,0-0.1,0l0,0C93.1,14.8,92.8,15.3,92.9,15.7L92.9,15.7z"/>
	<path fill="#010101" d="M87.5,16.3c-0.2-0.2-0.4-0.3-0.5-0.4L87,15.8c-0.1,0-0.3,0.1-0.4,0.2c-0.1,0-0.1,0.1-0.2,0.1
		c-0.3,0.6-0.4,1.1-0.4,1.5c0,0.3,0.1,0.6,0.3,0.7c0.2,0.2,0.4,0.3,0.6,0.3h0c0.8,0,1.6-0.5,1.7-1.3C88.6,16.7,88.2,16.4,87.5,16.3z
		 M87.6,17.6c-0.2,0.2-0.5,0.3-0.7,0.3c-0.2,0-0.2,0-0.2-0.3c0-0.1,0-0.3,0.1-0.6c0,0,0.1,0,0.1,0c0.5,0,0.8,0.1,0.9,0.1
		c0.1,0.1,0.1,0.1,0.1,0.1C88,17.2,87.8,17.4,87.6,17.6z"/>
	<path fill="#010101" d="M81.5,18.1L81.5,18.1l0.2-0.1l0,0c0,0,0-0.1-0.1-0.2c-0.2,0.2-0.5,0.2-0.8,0.3c0,0,0,0,0,0c0,0-0.1,0-0.1,0
		c0,0.2-0.2,0.5-0.3,0.7c0.1,0,0.2,0,0.3,0c0,0,0,0.1,0,0.1c0,0.5,0.1,0.9,0.2,1.3c0.2,0.4,0.4,0.7,0.8,0.7c0.5,0,0.7-0.4,0.9-0.9
		c0.1-0.2,0.1-0.4,0.1-0.6C82.8,18.6,82.2,18.2,81.5,18.1z M82,19.7c-0.1,0.2-0.2,0.4-0.2,0.4c0,0,0,0,0,0c0,0,0,0,0,0
		c-0.2-0.2-0.4-0.8-0.4-1.3c0,0,0,0,0-0.1c0.5,0.1,0.8,0.3,0.8,0.6C82.1,19.4,82.1,19.5,82,19.7z"/>
	<path fill="#010101" d="M77.4,20.5l0-0.3l-0.3,0c-0.1,0-0.2,0-0.3,0c-0.3,0-0.6,0-0.9,0.1c0.1-0.1,0.1-0.1,0.2-0.2
		c-0.1,0-0.1,0.1-0.2,0.1c-0.2,0-0.5,0.1-0.7,0.1C75,20.4,75,20.5,75,20.6c-0.1,0-0.2,0.1-0.3,0.1c0.1,0.1,0.2,0.2,0.2,0.4
		c0,0.1,0,0.2-0.1,0.3c0,0,0,0,0.1,0c0,0.6,0.2,1.2,0.7,1.6l0.2,0.1L76,23c0.9-0.4,1.5-1.2,1.5-2.1C77.4,20.8,77.4,20.7,77.4,20.5z
		 M76.8,20.9c0,0.6-0.3,1.2-0.9,1.4c-0.2-0.3-0.4-0.7-0.3-1.1c0-0.1,0-0.1,0-0.2C75.9,21,76.3,20.9,76.8,20.9
		C76.8,20.9,76.8,20.9,76.8,20.9L76.8,20.9z"/>
	<path fill="#010101" d="M69.8,22.5c0,0,0-0.1,0-0.1c-0.1,0-0.1,0-0.2,0c-0.1,0-0.2,0-0.2-0.1c-0.1,0-0.2,0-0.2,0
		c0,0.1-0.1,0.2-0.1,0.2c0,0,0,0,0,0c0.1,0.2,0,0.5-0.1,0.7c0,0,0,0,0.1,0c0,0,0,0.1,0,0.1c0,0.8,0.1,1.8,1,1.9
		c0.3,0,0.6-0.1,0.8-0.4c0.4-0.4,0.7-0.8,0.7-1.1C71.4,22.8,70.5,22.5,69.8,22.5z M70.4,24.3c-0.2,0.2-0.3,0.2-0.3,0.2
		c0,0-0.1,0-0.2-0.3c-0.1-0.2-0.1-0.6-0.1-1c0,0,0-0.1,0-0.1c0.3,0,0.6,0.1,0.8,0.2c0.2,0.1,0.3,0.2,0.3,0.3
		C70.8,23.7,70.7,24,70.4,24.3z"/>
	<path fill="#010101" d="M63.8,24.3c0-0.1,0.1-0.1,0.1-0.1c-0.1,0-0.2-0.1-0.3-0.1c0,0-0.1,0-0.1-0.1c-0.1,0-0.2,0-0.3,0.1
		c0,0.1-0.1,0.2-0.1,0.2c-0.2,0-0.4,0.1-0.6,0.2c0,0.1,0,0.2,0,0.2c0,0.2-0.1,0.3-0.2,0.3l0.1,0.1c0.1-0.1,0.3-0.1,0.4-0.2
		c0,0.1,0,0.2,0,0.3c0,0.4,0.1,0.7,0.2,1.1l0.1,0.3l0.3-0.1c0.9-0.2,1.4-0.6,1.4-1.2C64.8,24.8,64.4,24.4,63.8,24.3z M63.5,25.9
		c0-0.2-0.1-0.4-0.1-0.6c0-0.1,0-0.3,0-0.4c0.4,0.1,0.6,0.3,0.6,0.5C64.1,25.5,64,25.7,63.5,25.9z"/>
	<path fill="#010101" d="M93.7,21c-0.5,0-1.1,0.3-1.5,0.8c0-0.1-0.1-0.2-0.1-0.3c0,0-0.1,0.1-0.1,0.1c0,0,0,0-0.1,0
		c-0.2,0.2-0.3,0.4-0.5,0.5c-0.1,0.2-0.1,0.3-0.2,0.5c0,0.1-0.1,0.1-0.1,0.2c0.1,0.9,0.5,1.7,1.4,1.7c0.5,0,0.9-0.2,1.4-0.7
		c0.6-0.6,0.9-1.1,0.9-1.7C94.9,21.5,94.3,21,93.7,21z M93.5,23.4c-0.4,0.4-0.8,0.5-1,0.5c-0.3,0-0.6-0.3-0.7-0.9l0.2,0.1
		c0.1-0.2,0.1-0.3,0.2-0.5l0.3,0.1c0.4-0.8,0.9-1.1,1.3-1.1c0.3,0,0.6,0.2,0.6,0.6C94.2,22.5,94.1,22.9,93.5,23.4z"/>
	<polygon fill="#010101" points="92,23.1 92,23.1 92,23.1 92,23.1 92,23.1 	"/>
	<path fill="#010101" d="M97.6,19.1c-0.3,0-0.5,0.1-0.8,0.3l-0.1-0.2c-0.4,0.1-0.7,0.4-0.9,0.8c-0.1,0.3-0.1,0.5-0.1,0.8
		c0,0.7,0.3,1.6,1.2,1.6c0.3,0,0.7-0.1,1.1-0.4c0.6-0.5,1-1,1-1.5C98.9,19.7,98.3,19.1,97.6,19.1z M97.6,21.4
		c-0.3,0.2-0.6,0.3-0.7,0.3c-0.2,0-0.2-0.1-0.3-0.2c-0.1-0.2-0.2-0.4-0.2-0.7c0,0,0-0.1,0-0.1l0.5,0.1c0.2-0.7,0.5-0.9,0.8-0.9
		c0.3,0,0.6,0.3,0.6,0.6C98.2,20.6,98.1,21,97.6,21.4z"/>
	<path fill="#010101" d="M103.1,17.1c-0.3,0-0.6,0.1-0.9,0.2l-0.1-0.2l-0.2,0c-0.1,0-0.3,0.1-0.4,0.2l-0.2,0.1l0,0.2
		c0,0.1,0,0.1,0,0.2c-0.1,0.1-0.2,0.2-0.2,0.3c0.2,0,0.4,0.1,0.5,0.2c0.1,0.1,0.1,0.2,0.1,0.3c0.3,0.4,0.6,0.7,1.1,0.9l0.2,0.1
		l0.2-0.1c0.6-0.5,0.9-0.9,0.9-1.4C104.2,17.4,103.6,17.1,103.1,17.1z M103,18.7c-0.3-0.2-0.6-0.4-0.7-0.7c0.3-0.2,0.6-0.2,0.8-0.2
		c0.4,0,0.4,0.1,0.4,0.2C103.5,18.1,103.4,18.4,103,18.7z"/>
	<path fill="#010101" d="M108.9,14.6c-0.2,0-0.5,0-0.7,0.1c-0.1-0.1-0.2-0.2-0.3-0.2l-0.2-0.1c0,0-0.1,0-0.1,0l-0.1,0.1
		c-0.5,0.6-0.8,1.3-0.8,1.9c0,0.7,0.4,1.4,1.2,1.4c0.4,0,0.8-0.1,1.2-0.4c0.8-0.5,1.3-1.1,1.3-1.7C110.3,15.2,109.7,14.6,108.9,14.6
		z M108.7,17c-0.4,0.2-0.7,0.3-0.9,0.3c-0.4,0-0.5-0.2-0.5-0.7c0-0.4,0.2-0.9,0.5-1.3c0.2,0.2,0.4,0.4,0.5,0.6l0.6-0.3
		c0-0.1-0.1-0.1-0.1-0.2c0.1,0,0.1,0,0.2,0c0.5,0,0.7,0.3,0.7,0.6C109.6,16.2,109.3,16.6,108.7,17z"/>
	<path fill="#010101" d="M112.7,15.8c-0.5-0.3-0.6-0.9-0.6-1.4l0,0c0-0.6,0.2-1.3,0.9-1.4l0,0c0.3,0,0.5,0.2,0.8,0.4l0,0l0,0
		l-0.5,0.4c-0.2-0.2-0.3-0.2-0.3-0.2l0,0c0,0,0,0-0.1,0.1l0,0c-0.1,0.1-0.1,0.4-0.1,0.6l0,0c0,0.4,0.1,0.8,0.3,0.8l0,0
		c0.1,0.1,0.2,0.1,0.3,0.1l0,0c0.6,0.1,1.4-0.8,1.8-1.5l0,0c-0.1,0-0.2-0.1-0.3-0.1l0,0c-0.4,0-0.8,0.2-1,0.6l0,0l-0.6-0.3
		c0.3-0.6,0.9-1,1.6-1l0,0c0.3,0,0.7,0.1,1,0.3l0,0l0.2,0.1l-0.1,0.2c-0.3,0.8-1.3,2.1-2.5,2.2l0,0C113.1,16,112.9,15.9,112.7,15.8
		L112.7,15.8z"/>
	<path fill="#010101" d="M122.2,11.3l-0.3-0.1c-0.2,0-0.4-0.1-0.6-0.1c-0.9,0-1.7,0.3-2.4,0.9l0.5,0.5c0.5-0.5,1.1-0.7,1.9-0.7
		c0.1,0,0.2,0,0.2,0c-0.1,1.1-1,1.4-1.9,1.4c-0.4,0-0.8-0.1-1-0.2c-0.3-0.1-0.3-0.3-0.3-0.3c0,0,0.1-0.3,0.6-0.5l-0.1-0.3
		c-0.2,0.1-0.5,0.1-0.7,0c-0.3,0.2-0.4,0.4-0.4,0.7c0.1,0.9,1.1,1.2,2,1.2c0.6,0,1.2-0.1,1.7-0.5c0.5-0.4,0.9-1,0.9-1.8c0,0,0,0,0,0
		L122.2,11.3z"/>
	<path fill="#010101" d="M128.2,11.2c-0.3-0.3-0.7-0.5-1.1-0.5c-0.1,0-0.2,0-0.3,0c0,0-0.1,0.1-0.2,0.1c-0.3,0.1-0.6,0.2-1,0.2
		c0,0-0.1,0-0.1,0c-0.1,0.2-0.1,0.3-0.1,0.5c0,0.7,0.7,1,1.3,1l0,0c0.6,0,1.3-0.3,1.6-1l0.1-0.2L128.2,11.2z M126.6,11.9
		c-0.4,0-0.6-0.1-0.6-0.3l0.2,0c0,0,0,0,0.1-0.1c0,0,0.1-0.1,0.1-0.2l0,0.1c0.3-0.1,0.5-0.1,0.6-0.1c0.2,0,0.3,0,0.5,0.1
		C127.3,11.8,126.9,11.9,126.6,11.9z"/>
	<path fill="#010101" d="M83.4,25.4c-0.1-0.1-0.2-0.2-0.4-0.2l0.1-0.1l0,0v0c0,0,0-0.1-0.1-0.2c-0.1-0.2-0.3-0.3-0.5-0.3
		c0,0-0.1,0-0.2,0l-0.1,0l-0.1,0.1c-0.2,0.2-0.4,0.5-0.5,0.7c-0.1,0.1-0.3,0.2-0.4,0.3c0,0.3-0.1,0.5-0.2,0.7l0.1,0.1
		c0.1-0.1,0.2-0.2,0.3-0.2c0,0.3,0.1,0.6,0.2,0.9l0.1,0.2l0.3-0.1c0.9-0.2,1.5-0.8,1.5-1.4C83.7,25.8,83.6,25.5,83.4,25.4z
		 M82.3,26.7c0-0.1-0.1-0.3-0.1-0.4c0-0.1,0-0.3,0.1-0.4c0.2-0.1,0.3-0.1,0.4-0.1c0.2,0,0.2,0.1,0.3,0.2
		C83,26.1,82.8,26.5,82.3,26.7z"/>
	<polygon fill="#010101" points="83.1,25.1 83.1,25.1 83.1,25.1 83.1,25.1 83.1,25.1 	"/>
	<path fill="#010101" d="M79.3,27.4c-0.2-0.1-0.4-0.1-0.6-0.1c-0.5,0-1,0.1-1.6,0.3c0,0,0-0.1,0-0.1c-0.2,0.1-0.5,0.2-0.7,0.3
		c0,0,0,0,0,0.1c-0.1,0-0.2,0.1-0.2,0.1c0,0,0,0,0,0c0.1,0.1,0.2,0.3,0.1,0.5c0,0.1,0,0.1-0.1,0.2c0,0,0.1,0,0.1-0.1v0
		c0,0.8,0.1,1.7,1,1.8c0.5,0,0.9-0.3,1.4-0.9c0.6-0.6,0.9-1.1,0.9-1.5C79.6,27.8,79.5,27.5,79.3,27.4z M78.2,29.1
		c-0.5,0.5-0.8,0.7-0.9,0.6c-0.1,0-0.1,0-0.2-0.2C77,29.3,77,28.9,77,28.6c0-0.1,0-0.2,0-0.3c0.6-0.2,1.3-0.4,1.7-0.4
		c0.2,0,0.3,0,0.3,0l0,0C78.9,28.1,78.8,28.5,78.2,29.1z"/>
	<path fill="#010101" d="M71.9,29.4c0,0,0-0.1,0-0.1c-0.2,0-0.5,0-0.7,0c0,0,0,0.1,0,0.1c0,0,0,0,0,0c0.1,0.3,0.1,0.7,0,1
		c0,0-0.1,0.1-0.1,0.1c0,0.4,0.1,0.8,0.2,1.2c0.1,0.4,0.3,0.8,0.8,0.9c0.5,0,0.7-0.4,1-1c0.1-0.3,0.2-0.6,0.2-0.8
		C73.4,29.9,72.7,29.4,71.9,29.4z M72.5,31.3c-0.1,0.3-0.2,0.5-0.3,0.6c0,0,0,0,0,0c-0.1-0.2-0.4-1-0.3-1.7c0,0,0-0.1,0-0.1l0,0
		c0.5,0,0.8,0.2,0.8,0.7C72.7,30.9,72.6,31.1,72.5,31.3z"/>
	<path fill="#010101" d="M65.9,31.8c-0.1,0-0.2,0-0.3,0c-0.1,0.1-0.2,0.2-0.3,0.2c-0.1,0-0.2,0-0.2,0l0,0c-0.1,0.1-0.3,0.1-0.4,0
		c0,0,0,0,0,0c0,0.2,0,0.3,0,0.5c0,0.1,0,0.2,0,0.2c0,0,0,0,0.1,0l0,0c0,0.8,0.1,1.8,1,1.9c0.4,0,0.7-0.2,1-0.6
		c0.4-0.4,0.6-0.8,0.6-1.2C67.4,32,66.6,31.8,65.9,31.8z M66.3,33.6C66,33.9,65.8,34,65.8,34c0,0-0.1,0-0.2-0.3
		c-0.1-0.2-0.1-0.6-0.1-1c0-0.1,0-0.2,0-0.3c0.1,0,0.3,0,0.4,0c0.3,0,0.5,0.1,0.7,0.2c0.2,0.1,0.2,0.2,0.2,0.3
		C66.8,33,66.7,33.3,66.3,33.6z"/>
	<path fill="#010101" d="M59,33.9c-0.2,0-0.3,0-0.5,0c0,0,0,0,0.1-0.1c-0.2,0-0.5,0-0.7,0c0,0.1-0.1,0.1-0.1,0.2
		c-0.1,0-0.2,0.1-0.3,0.1c0,0,0,0,0,0c0,0.2,0.1,0.4,0.1,0.6c0,0,0,0,0,0c0,0.9,0.4,1.9,1.4,2c0.4,0,0.8-0.2,1.2-0.5
		c0.5-0.4,0.7-0.8,0.7-1.2C60.9,34.1,59.9,34,59,33.9z M59.8,35.8c-0.3,0.3-0.6,0.4-0.7,0.4c-0.2,0-0.3-0.1-0.5-0.3
		c-0.1-0.2-0.2-0.6-0.2-1c0-0.1,0-0.1,0-0.2c0.2,0,0.5-0.1,0.7,0c0.4,0,0.7,0.1,1,0.2c0.2,0.1,0.3,0.2,0.3,0.3
		C60.3,35.1,60.2,35.4,59.8,35.8z"/>
	<path fill="#010101" d="M52.1,35.4C52.1,35.4,52.1,35.4,52.1,35.4c-0.3,0.1-0.6,0.3-0.9,0.6c-0.1,0.3-0.1,0.6-0.1,1
		c0,0.5,0.1,1,0.6,1.4l0.2,0.2l0.2-0.2c0.6-0.5,0.8-1.1,0.8-1.7C52.9,36.1,52.6,35.6,52.1,35.4z M51.9,37.6
		c-0.1-0.2-0.1-0.4-0.1-0.6c0-0.3,0.1-0.6,0.2-0.9c0.2,0.1,0.3,0.3,0.3,0.6C52.2,36.9,52.1,37.2,51.9,37.6z"/>
	<path fill="#010101" d="M45.3,36.3c-0.1-0.1-0.3-0.2-0.5-0.2c-0.3,0.1-0.7,0.1-1,0c-0.1,0-0.1-0.1-0.1-0.1c-0.1,0-0.2,0.1-0.2,0.1
		c0,0,0,0-0.1,0.1c0,0-0.1,0.1-0.1,0.1c0,0.1,0,0.1,0,0.2c0,0,0,0-0.1,0.1c-0.1,0.3-0.1,0.5-0.2,0.8l0.1,0.1
		c0.1-0.1,0.1-0.1,0.2-0.2c0,0.3,0.1,0.6,0.2,0.8c0.2,0.4,0.4,0.8,0.9,0.8c0.5,0,0.8-0.5,1-1.1c0.1-0.3,0.1-0.5,0.1-0.7
		C45.6,36.7,45.5,36.5,45.3,36.3z M44.8,37.5c-0.1,0.3-0.2,0.5-0.3,0.6c-0.1,0.1-0.1,0.1-0.1,0.1c0,0,0,0-0.1-0.1
		c-0.2-0.2-0.4-0.7-0.4-1.3c0.3-0.1,0.5-0.2,0.7-0.2c0.3,0,0.3,0,0.3,0.3C44.9,37.2,44.9,37.3,44.8,37.5z"/>
	<path fill="#010101" d="M18.6,38.8C18.6,38.8,18.6,38.7,18.6,38.8c0-3,1.9-7.7,4.5-9l-0.3-0.6c-2.9,1.6-4.7,6.1-4.9,9.2
		C18.1,38.5,18.3,38.6,18.6,38.8z"/>
	<path fill="#CFB8A3" d="M93.1,39.7c0,0,10.1-9,19.1-7.9l-3.6-2.2c0,0-15.5,1.1-17.9,9L93.1,39.7z"/>
	<path fill="#CFB8A3" d="M43.1,16.8c0.3,0.5,4.6-7.2,12-6.1c7.4,1.1,0.1-0.8,0-0.4c-0.1,0.4-7.5-1.9-7.5-1.9s-9.6,3-8.6,6.2
		L43.1,16.8z"/>
	<path fill="#382114" d="M87.5,38.9l7,1.8c0,0,0.4,0.5-2.1,1.6C89.9,43.4,85.9,41.7,87.5,38.9z"/>
	<path fill="#382114" d="M104.4,44.4l8.3,1.7c0,0,0,1.6-3.5,1.7S104.2,46,104.4,44.4z"/>
	<path fill="#5C4455" d="M105.3,8.8c0.9-0.2,6.3,1.6,6.3,1.6l-5.1,0.4C106.5,10.9,101.6,9.8,105.3,8.8z"/>
	<path fill="#5C4455" d="M129.4,9.2c-2.9,0.7,5,3.6,2.4,5.8c-2.6,2.2-22.7,9.6-22.7,9.6s12.2-3.1,17.4-4.2c5.2-1.1,8.5-1.3,8.5-0.9
		c0,0.4,4-2,4.7-4.4C140.4,12.8,132.5,8.5,129.4,9.2z"/>
	<path fill="#D2D5D5" d="M87.7,23.9c-2.1,1.6-4.3,4,1,5.7c5.3,1.7,15.8,1.3,23.7,4.8c7.9,3.5,15.6,6.1,15.6,9s-6,4.1-6,4.1
		s17.5,4.5,20.1,0.6c0,0-7.4-8.6-23.9-13.9S87.7,23.9,87.7,23.9z"/>
	<path fill="#D2D5D5" d="M26.4,1c3.1,1.2,13,5.2,19.5,8.8c6.4,3.6,9.9,5.7,13.7,7.2c3.7,1.6,8.7,2.4,8.7,2.4l6.4-4
		c0,0-25.8-6.7-31.8-9.3C36.9,3.6,26.4,1,26.4,1z"/>
	<path fill="#D1C7BA" d="M81.8,36.9c-3.6-0.9-8-3.1-9.8-2.7c-1.8,0.5-7.4,1.7-14.8,2.7c-7.4,1-13.9,2.9-21.5,2.8
		c-7.5-0.1-24.2-9.4-26.9-11.5c-2.7-2.1-0.5,1.1,1.3,3.2c1.8,2,10.5,13.4,32.2,12.2C63.9,42.4,81.8,36.9,81.8,36.9z"/>
	<path fill="#7F1417" d="M10.2,24.6c-0.7,1.3-2.2,3.5-0.6,5.8c1.7,2.3,3.9,3.6,5,2.5c1.2-1.1,4.5-3.9,4.5-3.9L18,27.6
		c0,0-1.1,1.4-2.5,2.2c-1.4,0.9-4,1.3-3.9-1.3c0.2-2.7,0.9-3.2,0.9-3.2L10.2,24.6z"/>
	<path fill="#7F1417" d="M15.7,35.4c0.1,0.3,2.7-7.2,4.2-7c1.6,0.1,2.8,0.7,2.8,0.7s-4.3,8.7-4.2,9.1C18.7,38.6,15.7,35.4,15.7,35.4
		z"/>
	<path fill="#7F1417" d="M20.3,39.1c0,0-1-0.7,2.2-4c3.2-3.3,6.6-5.1,6.6-5.1s0.8,2.5,1.2,4.4c0.4,1.9,0.2,8.7,0.2,8.7l-2.8-0.8
		c0,0,0.9-3.1,0.6-5.7s-2.1-1.3-3,0.6s-1.3,3.9-1.3,3.9L20.3,39.1z"/>
	<polygon fill="#7F1417" points="48.4,27.9 51.1,30.3 51.4,26.8 	"/>
	<polygon fill="#7F1417" points="52.6,26.9 54.6,29.5 55.6,26.3 	"/>
	<polygon fill="#7F1417" points="56.9,25.8 60.4,24.6 59.9,29.5 	"/>
	<path fill="#7F1417" d="M33,36.8c0,0,5.7,3,12.7,2.6s27.6-5.7,27.6-5.7l1,1c0,0-22.3,5.7-29.4,5.5C37.8,39.9,33,36.8,33,36.8z"/>
	<path fill="#7F1417" d="M94.3,25.9c0,0,36.4-12.7,38-14.1s2.5-0.2,2.5-0.2L96.7,26.4L94.3,25.9z"/>
	<path fill="#010101" d="M50.9,20.9c-1.3-0.5-2.8-0.9-4.1-1.5l0,0c-2.9-1.3-5.7-2.9-8.4-4.5l0,0c-1.2-0.7-5.3-3.2-9.2-5.9l0,0
		c-3.8-2.8-7.4-5.6-7.5-7.7l0,0c0-0.2,0.1-0.5,0.2-0.7l0,0C22.2,0,22.8,0,23.5,0l0,0c2.7,0,8.1,1.7,9.2,2l0,0
		c4.8,1.2,9.1,3.6,13.6,5.5l0,0c4.8,2.1,10.2,3.2,15.3,4.8l0,0c3.6,1.1,8.4,3.2,12,3.2l0,0c0.3,0,0.6,0,0.9,0l0,0l0.1,0.7
		c-0.3,0-0.7,0-1,0l0,0c-3.9-0.1-8.7-2.2-12.2-3.3l0,0c-5-1.6-10.5-2.7-15.4-4.8l0,0c-4.5-2-8.8-4.3-13.5-5.5l0,0
		c-1.2-0.3-6.6-1.9-9.1-2l0,0c-0.7,0-1,0.1-1,0.2l0,0c-0.1,0.1-0.1,0.2-0.1,0.4l0,0c-0.1,1.4,3.4,4.5,7.2,7.2l0,0
		c3.8,2.7,8,5.2,9.2,5.9l0,0c2.7,1.6,5.5,3.3,8.3,4.5l0,0c1.3,0.6,2.7,0.9,4.1,1.5l0,0c1.4,0.6,3.2,1.9,4.5,1.9l0,0c0,0,0.1,0,0.2,0
		l0,0l0,0.7c-0.1,0-0.1,0-0.2,0l0,0C53.9,22.8,52.2,21.4,50.9,20.9L50.9,20.9z"/>
	<path fill="#010101" d="M136.6,10.5c-3-1.4-6.3-1.7-9.7-1.8c-3.9,0-7.9,0.4-11.5,0.3h0c-3.5,0-6.8-1.5-10.4-1.8c-0.3,0-0.6,0-0.9,0
		c-3.3,0-6.3,0.8-9.4,1.5c-3.7,0.9-7.5,1.7-11.2,3c-3.5,1.3-8.4,2.8-11.4,5.1l0.2,0.3c-1,0.5-2,1-3.1,1.5
		c-8.5,4.1-18.4,6.2-27.6,8.7c-3.9,1.1-8.1,2.2-12.2,2.2c-0.8,0-1.6-0.1-2.4-0.2c-3.7-0.5-8.2-1.9-11.7-3.3C12,24.8,8.5,22.7,5.2,21
		C4.2,20.5,3,20.1,2,20.1c-1,0-2,0.3-2,1.3c0,0.7,0.5,1.5,1.5,2.5c1.6,1.5,3.5,2.8,5.1,4.2c1.8,1.5,3.2,3.4,4.9,5.1
		c1,1,2.2,1.9,3.3,2.8c0.2,0.1,0.4,0.3,0.6,0.5c2,1.5,4.2,2.9,6.5,4.2c4.9,2.7,10.1,3.6,15.5,3.6c3.1,0,6.1-0.2,9.2-0.4
		C57.2,43,67,41.3,77.3,39c10.5-2.4,21-5,31.3-8.2c6.6-2,13.8-3.6,20.2-6.8c3.4-1.7,11.3-5.4,11.5-9.5
		C140.3,13,139.2,11.7,136.6,10.5z M128.5,23.4c-6.2,3.1-13.4,4.7-20.1,6.8c-10.3,3.2-20.7,5.8-31.2,8.2c-10.3,2.4-20.1,4-30.5,4.9
		c-3.1,0.3-6.2,0.5-9.2,0.4c-5.3-0.1-10.4-0.9-15.2-3.5c-3.7-2.1-7.3-4.5-10.3-7.4c-1.7-1.6-3-3.6-5-5.2c-1.7-1.4-3.6-2.7-5.1-4.2
		c-1-1-1.3-1.7-1.3-2c0-0.4,0.4-0.6,1.3-0.6h0c0.8,0,2,0.3,2.9,0.8c3.3,1.7,6.7,3.8,10.2,5.2c3.6,1.4,8.1,2.8,11.9,3.4
		c0.8,0.1,1.6,0.2,2.5,0.2c4.2,0,8.5-1.1,12.4-2.2c9.2-2.5,19.1-4.6,27.7-8.8c2.7-1.3,5.3-2.7,7.9-4l-0.3-0.5
		c2.2-0.9,4.5-1.7,6.5-2.4c3.6-1.3,7.3-2.1,11.1-3c3.1-0.7,6.1-1.5,9.3-1.5c0.3,0,0.6,0,0.9,0c3.5,0.2,6.7,1.7,10.4,1.8h0
		c3.7,0,7.7-0.4,11.5-0.3c3.3,0,6.5,0.4,9.4,1.7c2.4,1.1,3.2,2.3,3.2,3.3C139.6,17.7,131.9,21.7,128.5,23.4z"/>
	<path fill="#010101" d="M15.2,36.2c0.2-2.6,2.6-5,4.4-6.8L19.1,29c-1.8,1.8-4.1,4.2-4.5,7C14.8,36,15,36.1,15.2,36.2z"/>
	<path fill="#010101" d="M11.5,27.2c0-1,0.4-2.1,1.6-2.1l0,0c0,0,0.1,0,0.1,0l0,0h0l-0.1,0.7c0,0,0,0-0.1,0l0,0
		c-0.3,0-0.4,0.1-0.6,0.4l0,0c-0.2,0.3-0.3,0.7-0.3,1.1l0,0c0,0.6,0.2,1.3,0.5,1.8l0,0c0.3,0.5,0.8,0.8,1.3,0.8l0,0
		c0.7,0,1.6-0.4,2.8-1.8l0,0l0.5,0.4c-1.3,1.4-2.4,2-3.4,2l0,0C12.2,30.5,11.5,28.7,11.5,27.2L11.5,27.2z"/>
	<path fill="#010101" d="M28.2,35.8c0-0.4,0-0.8-0.5-1c-0.1,0-0.2,0-0.3,0c-1.2,0.1-2.2,1.6-3.1,3.2c-0.7,1.2-1.3,2.4-1.5,3.2
		c0.2,0.1,0.4,0.2,0.6,0.3c0.2-0.6,0.8-2,1.5-3.2c0.9-1.6,2.1-2.9,2.5-2.8c0,0,0,0,0,0c0,0,0,0,0,0c0,0.1,0,0.2,0,0.3
		c0,1.1-0.7,3.8-0.8,5.5c0,0.6,0,1,0.3,1.4l0.5-0.4c-0.1-0.1-0.2-0.5-0.2-1C27.5,39.7,28.2,37.1,28.2,35.8z"/>
	<path fill="#010101" d="M30.7,36.7c-0.1-2.4-1-5-0.9-7.2l0,0c-0.3,0-0.7,0-1,0c0,0,0,0,0,0c-1.1,0.8-3.1,2.3-4.9,4
		c-2.1,2-4.1,4.1-4.2,5.6c0,0.1,0,0.2,0,0.3c0.2,0.1,0.4,0.2,0.6,0.3l0.2-0.3v0c-0.1-0.1-0.2-0.2-0.2-0.4c0-1,1.8-3.2,3.9-5.2
		c1.8-1.7,3.7-3.2,4.8-4c0.1,2.2,0.9,4.6,0.9,6.7c0.1,2.3-0.1,5.5,0.6,7.4l0.6-0.2C30.6,42.3,30.8,39,30.7,36.7z"/>
</g>
</svg>
<rect x="187" y="2" width="110" height="20" fill="none" stroke="none" pointer-events="none"/><g text-anchor="middle" font-size="12px"><text x="242" y="15" fill="#555555" font-family="Helvetica">ATC Mediator</text></g><path d="M 90 216 L 150 173" fill="none" stroke="#555555" stroke-miterlimit="10" pointer-events="none"/><path d="M 147 180 L 151 173 L 143 174" fill="none" stroke="#555555" stroke-miterlimit="10" pointer-events="none"/><path d="M 102 222 L 162 182" fill="none" stroke="#555555" stroke-miterlimit="10" pointer-events="none"/><path d="M 105 216 L 101 223 L 109 222" fill="none" stroke="#555555" stroke-miterlimit="10" pointer-events="none"/><path d="M 222 224 L 231 186" fill="none" stroke="#555555" stroke-miterlimit="10" pointer-events="none"/><path d="M 233 193 L 232 185 L 227 191" fill="none" stroke="#555555" stroke-miterlimit="10" pointer-events="none"/><path d="M 237 230 L 242 192" fill="none" stroke="#555555" stroke-miterlimit="10" pointer-events="none"/><path d="M 234 223 L 237 231 L 241 224" fill="none" stroke="#555555" stroke-miterlimit="10" pointer-events="none"/><path d="M 379 197 L 331 178" fill="none" stroke="#555555" stroke-miterlimit="10" pointer-events="none"/><path d="M 338 177 L 330 177 L 335 183" fill="none" stroke="#555555" stroke-miterlimit="10" pointer-events="none"/><path d="M 377 206 L 329 187" fill="none" stroke="#555555" stroke-miterlimit="10" pointer-events="none"/><path d="M 370 207 L 378 207 L 373 201" fill="none" stroke="#555555" stroke-miterlimit="10" pointer-events="none"/></g></svg>